<svg width="512" height="512" viewBox="0 0 512 512" fill="none" xmlns="http://www.w3.org/2000/svg">
<g clip-path="url(#clip0)">
<path d="M407.996 203.939V234.96L395.349 337.505L407.996 440.055V485.609C407.996 498.524 397.341 509.001 384.197 509.001H113.799C100.655 509.001 90 498.524 90 485.609V440.055L104.211 337.505L90 234.96V203.939C90 195.285 94.8639 187.327 102.644 183.271L141.493 163.014C149.273 158.958 154.137 151.001 154.137 142.347V58.418H343.859V142.347C343.859 151.001 348.723 158.958 356.503 163.014L395.352 183.271C403.132 187.327 407.996 195.285 407.996 203.939Z" fill="#943C42"/>
<path d="M395.354 183.271L356.505 163.014C348.725 158.958 343.861 151.001 343.861 142.347V58.418H318.559V142.347C318.559 151.001 323.422 158.958 331.203 163.014L370.051 183.271C377.831 187.327 382.695 195.285 382.695 203.939V485.609C382.695 498.524 372.04 509.001 358.896 509.001H384.199C397.343 509.001 407.998 498.524 407.998 485.609V440.055L397.658 346.785L407.998 234.96V203.939C407.998 195.285 403.134 187.327 395.354 183.271V183.271Z" fill="#9B3B3B"/>
<path d="M360.196 11.5421V69.4473C360.196 75.8277 354.946 80.9894 348.468 80.9894H149.528C143.05 80.9894 137.801 75.8277 137.801 69.4473V11.5421C137.801 5.17193 143.05 0 149.528 0H348.468C354.946 0 360.196 5.17193 360.196 11.5421V11.5421Z" fill="#7A8C98"/>
<path d="M348.463 0H326.285C332.765 0 338.019 5.16579 338.019 11.538V69.4503C338.019 75.8226 332.765 80.9883 326.285 80.9883H348.463C354.943 80.9883 360.197 75.8226 360.197 69.4503V11.538C360.197 5.16579 354.943 0 348.463 0V0Z" fill="#6A808C"/>
<path d="M90.0039 234.959H408V440.054H90.0039V234.959Z" fill="#EAF6FF"/>
<path d="M382.695 234.959H407.998V440.054H382.695V234.959Z" fill="#EAF6FF"/>
<path d="M142.25 357L137.95 345.95H123.8L119.55 357H115L128.95 321.15H133L146.9 357H142.25ZM132.6 331.15C132.5 330.883 132.333 330.4 132.1 329.7C131.867 329 131.633 328.283 131.4 327.55C131.2 326.783 131.033 326.2 130.9 325.8C130.667 326.833 130.4 327.85 130.1 328.85C129.8 329.817 129.55 330.583 129.35 331.15L125.3 341.95H136.6L132.6 331.15ZM164.084 329.7C167.284 329.7 169.7 330.483 171.334 332.05C172.967 333.583 173.784 336.083 173.784 339.55V357H169.434V339.85C169.434 335.55 167.434 333.4 163.434 333.4C160.467 333.4 158.417 334.233 157.284 335.9C156.15 337.567 155.584 339.967 155.584 343.1V357H151.184V330.2H154.734L155.384 333.85H155.634C156.5 332.45 157.7 331.417 159.234 330.75C160.767 330.05 162.384 329.7 164.084 329.7ZM192.242 329.75C195.508 329.75 197.925 330.467 199.492 331.9C201.058 333.333 201.842 335.617 201.842 338.75V357H198.642L197.792 353.2H197.592C196.425 354.667 195.192 355.75 193.892 356.45C192.625 357.15 190.858 357.5 188.592 357.5C186.158 357.5 184.142 356.867 182.542 355.6C180.942 354.3 180.142 352.283 180.142 349.55C180.142 346.883 181.192 344.833 183.292 343.4C185.392 341.933 188.625 341.133 192.992 341L197.542 340.85V339.25C197.542 337.017 197.058 335.467 196.092 334.6C195.125 333.733 193.758 333.3 191.992 333.3C190.592 333.3 189.258 333.517 187.992 333.95C186.725 334.35 185.542 334.817 184.442 335.35L183.092 332.05C184.258 331.417 185.642 330.883 187.242 330.45C188.842 329.983 190.508 329.75 192.242 329.75ZM193.542 344.05C190.208 344.183 187.892 344.717 186.592 345.65C185.325 346.583 184.692 347.9 184.692 349.6C184.692 351.1 185.142 352.2 186.042 352.9C186.975 353.6 188.158 353.95 189.592 353.95C191.858 353.95 193.742 353.333 195.242 352.1C196.742 350.833 197.492 348.9 197.492 346.3V343.9L193.542 344.05ZM214.519 357H210.119V319H214.519V357ZM232.51 329.7C234.276 329.7 235.86 330.033 237.26 330.7C238.693 331.367 239.91 332.383 240.91 333.75H241.16L241.76 330.2H245.26V357.45C245.26 361.283 244.276 364.167 242.31 366.1C240.376 368.033 237.36 369 233.26 369C229.326 369 226.11 368.433 223.61 367.3V363.25C226.243 364.65 229.543 365.35 233.51 365.35C235.81 365.35 237.61 364.667 238.91 363.3C240.243 361.967 240.91 360.133 240.91 357.8V356.75C240.91 356.35 240.926 355.783 240.96 355.05C240.993 354.283 241.026 353.75 241.06 353.45H240.86C239.06 356.15 236.293 357.5 232.56 357.5C229.093 357.5 226.376 356.283 224.41 353.85C222.476 351.417 221.51 348.017 221.51 343.65C221.51 339.383 222.476 336 224.41 333.5C226.376 330.967 229.076 329.7 232.51 329.7ZM233.11 333.4C230.876 333.4 229.143 334.3 227.91 336.1C226.676 337.867 226.06 340.4 226.06 343.7C226.06 347 226.66 349.533 227.86 351.3C229.093 353.033 230.876 353.9 233.21 353.9C235.91 353.9 237.876 353.183 239.11 351.75C240.343 350.283 240.96 347.933 240.96 344.7V343.65C240.96 339.983 240.326 337.367 239.06 335.8C237.793 334.2 235.81 333.4 233.11 333.4ZM256.021 320.15C256.688 320.15 257.271 320.383 257.771 320.85C258.305 321.283 258.571 321.983 258.571 322.95C258.571 323.883 258.305 324.583 257.771 325.05C257.271 325.517 256.688 325.75 256.021 325.75C255.288 325.75 254.671 325.517 254.171 325.05C253.671 324.583 253.421 323.883 253.421 322.95C253.421 321.983 253.671 321.283 254.171 320.85C254.671 320.383 255.288 320.15 256.021 320.15ZM258.171 330.2V357H253.771V330.2H258.171ZM279.562 329.7C282.762 329.7 285.179 330.483 286.812 332.05C288.445 333.583 289.262 336.083 289.262 339.55V357H284.912V339.85C284.912 335.55 282.912 333.4 278.912 333.4C275.945 333.4 273.895 334.233 272.762 335.9C271.629 337.567 271.062 339.967 271.062 343.1V357H266.662V330.2H270.212L270.862 333.85H271.112C271.979 332.45 273.179 331.417 274.712 330.75C276.245 330.05 277.862 329.7 279.562 329.7ZM299.82 320.15C300.487 320.15 301.07 320.383 301.57 320.85C302.104 321.283 302.37 321.983 302.37 322.95C302.37 323.883 302.104 324.583 301.57 325.05C301.07 325.517 300.487 325.75 299.82 325.75C299.087 325.75 298.47 325.517 297.97 325.05C297.47 324.583 297.22 323.883 297.22 322.95C297.22 321.983 297.47 321.283 297.97 320.85C298.47 320.383 299.087 320.15 299.82 320.15ZM301.97 330.2V357H297.57V330.2H301.97ZM332.861 330.2V357H329.261L328.611 353.45H328.411C327.544 354.85 326.344 355.883 324.811 356.55C323.278 357.183 321.644 357.5 319.911 357.5C316.678 357.5 314.244 356.733 312.611 355.2C310.978 353.633 310.161 351.15 310.161 347.75V330.2H314.611V347.45C314.611 351.717 316.594 353.85 320.561 353.85C323.528 353.85 325.578 353.017 326.711 351.35C327.878 349.683 328.461 347.283 328.461 344.15V330.2H332.861ZM370.769 329.7C373.802 329.7 376.069 330.483 377.569 332.05C379.069 333.583 379.819 336.083 379.819 339.55V357H375.469V339.75C375.469 335.517 373.652 333.4 370.019 333.4C367.419 333.4 365.552 334.15 364.419 335.65C363.319 337.15 362.769 339.333 362.769 342.2V357H358.419V339.75C358.419 335.517 356.586 333.4 352.919 333.4C350.219 333.4 348.352 334.233 347.319 335.9C346.286 337.567 345.769 339.967 345.769 343.1V357H341.369V330.2H344.919L345.569 333.85H345.819C346.652 332.45 347.769 331.417 349.169 330.75C350.602 330.05 352.119 329.7 353.719 329.7C357.919 329.7 360.652 331.2 361.919 334.2H362.169C363.069 332.667 364.286 331.533 365.819 330.8C367.386 330.067 369.036 329.7 370.769 329.7Z" fill="#FB0101"/>
<path d="M167.266 0H182.888V80.9894H167.266V0Z" fill="#6A808C"/>
<path d="M204.34 0H219.963V80.9894H204.34V0Z" fill="#6A808C"/>
<path d="M241.43 0H257.052V80.9894H241.43V0Z" fill="#6A808C"/>
<path d="M278.512 0H294.134V80.9894H278.512V0Z" fill="#6A808C"/>
<path d="M314.426 0H330.049V80.9894H314.426V0Z" fill="#6A808C"/>
</g>
<defs>
<clipPath id="clip0">
<rect width="512" height="512" fill="white"/>
</clipPath>
</defs>
</svg>
