<svg id="Capa_1" enable-background="new 0 0 497 497" height="512" viewBox="0 0 497 497" width="512" xmlns="http://www.w3.org/2000/svg"><g><path d="m345.379 199.13v30.29l-12.143 100.127 12.143 100.133v44.48c0 12.61-10.23 22.84-22.85 22.84h-259.62c-12.62 0-22.85-10.23-22.85-22.84v-44.48l13.645-100.133-13.645-100.127v-30.29c0-8.45 4.67-16.22 12.14-20.18l37.3-19.78c7.47-3.96 12.14-11.73 12.14-20.18v-81.95h182.16v81.95c0 8.45 4.67 16.22 12.14 20.18l37.3 19.78c7.47 3.96 12.14 11.73 12.14 20.18z" fill="#a7edf9"/><path d="m333.239 178.95-37.3-19.78c-7.47-3.96-12.14-11.73-12.14-20.18v-81.95h-24.294v81.95c0 8.45 4.67 16.22 12.14 20.18l37.3 19.78c7.47 3.96 12.14 11.73 12.14 20.18v275.03c0 12.61-10.23 22.84-22.85 22.84h24.294c12.62 0 22.85-10.23 22.85-22.84v-44.48l-9.928-91.071 9.928-109.189v-30.29c0-8.45-4.67-16.22-12.14-20.18z" fill="#99e6fc"/><path d="m299.483 11.27v56.54c0 6.23-5.04 11.27-11.26 11.27h-191.01c-6.22 0-11.26-5.04-11.26-11.27v-56.54c0-6.22 5.04-11.27 11.26-11.27h191.01c6.22 0 11.26 5.05 11.26 11.27z" fill="#7a8c98"/><path d="m288.221.001h-21.294c6.222 0 11.266 5.044 11.266 11.266v56.547c0 6.222-5.044 11.266-11.266 11.266h21.294c6.222 0 11.266-5.044 11.266-11.266v-56.547c0-6.222-5.044-11.266-11.266-11.266z" fill="#6a808c"/><path d="m40.063 229.42h305.32v200.26h-305.32z" fill="#eaf6ff"/><path d="m321.088 229.42h24.294v200.26h-24.294z" fill="#c8effe"/><path d="m304.343 329.55c0 44-25.51 82.04-62.54 100.13h-97.7c-37.03-18.09-62.54-56.13-62.54-100.13s25.51-82.04 62.54-100.13h97.7c37.03 18.09 62.54 56.13 62.54 100.13z" fill="#c8effe"/><path d="m241.803 229.42h-24.294c37.03 18.09 62.54 56.13 62.54 100.13s-25.51 82.04-62.54 100.13h24.294c37.03-18.09 62.54-56.13 62.54-100.13s-25.51-82.04-62.54-100.13z" fill="#a7edf9"/><g><path d="m217.508 353.233-47.082-2.33-26.711-26.71c-12.054-12.054-12.054-31.596 0-43.65 6.023-6.023 13.924-9.039 21.825-9.039s15.802 3.015 21.825 9.039l26.703 26.711z" fill="#6c7fd8"/><path d="m241.722 334.906-27.653-27.653-26.703-26.711c-6.023-6.023-13.924-9.039-21.825-9.039-4.14 0-8.277.836-12.147 2.491 3.515 1.503 6.811 3.681 9.678 6.547l26.703 26.711 27.653 27.653c12.054 12.054 12.054 31.596 0 43.65-2.868 2.868-6.163 5.046-9.678 6.549 11.255 4.814 24.786 2.637 33.972-6.549 12.054-12.053 12.054-31.595 0-43.649z" fill="#4f66d0"/><path d="m241.722 378.556c-12.054 12.054-31.596 12.054-43.65 0l-27.646-27.653 43.642-43.65 27.653 27.653c12.055 12.054 12.055 31.596.001 43.65z" fill="#ee6161"/><path d="m241.722 334.906-27.653-27.653-12.146 12.148 15.505 15.505c12.054 12.054 12.054 31.596 0 43.65-2.868 2.868-6.163 5.046-9.678 6.549 11.255 4.814 24.786 2.637 33.972-6.549 12.054-12.054 12.054-31.596 0-43.65z" fill="#e94444"/></g><g><path d="m114.243 0h15v79.08h-15z" fill="#6a808c"/></g><g><path d="m149.843 0h15v79.08h-15z" fill="#6a808c"/></g><g><path d="m185.453 0h15v79.08h-15z" fill="#6a808c"/></g><g><path d="m221.053 0h15v79.08h-15z" fill="#6a808c"/></g><g><path d="m256.663 0h15v79.08h-15z" fill="#6a808c"/></g><g><g><path d="m402.813 152.943c-2.363 0-4.688-1.113-6.147-3.195-2.378-3.392-1.556-8.069 1.835-10.447l46.634-32.696c3.392-2.377 8.069-1.556 10.447 1.835s1.556 8.069-1.835 10.447l-46.634 32.696c-1.311.919-2.813 1.36-4.3 1.36z" fill="#c8effe"/></g><g><path d="m444.897 199.999c-.431 0-.867-.038-1.307-.115l-28.743-5.05c-4.08-.717-6.806-4.605-6.089-8.685s4.601-6.805 8.685-6.089l28.743 5.05c4.08.717 6.806 4.605 6.089 8.685-.64 3.64-3.805 6.204-7.378 6.204z" fill="#c8effe"/></g><g><path d="m367.873 126.086c-.431 0-.867-.038-1.307-.115-4.08-.717-6.806-4.605-6.089-8.685l4.812-27.385c.717-4.08 4.604-6.806 8.685-6.089 4.08.717 6.806 4.605 6.089 8.685l-4.812 27.385c-.64 3.641-3.806 6.204-7.378 6.204z" fill="#c8effe"/></g></g></g></svg>