<svg width="512" height="512" viewBox="0 0 512 512" fill="none" xmlns="http://www.w3.org/2000/svg">
<g clip-path="url(#clip0)">
<path d="M413.535 205.14V236.344L401.025 339.493L413.535 442.648V488.471C413.535 501.461 402.996 512 389.995 512H122.54C109.539 512 99 501.461 99 488.471V442.648L113.057 339.493L99 236.344V205.14C99 196.435 103.811 188.431 111.506 184.351L149.932 163.974C157.628 159.895 162.439 151.89 162.439 143.185V58.7617H350.096V143.185C350.096 151.89 354.907 159.895 362.603 163.974L401.029 184.351C408.724 188.431 413.535 196.435 413.535 205.14V205.14Z" fill="#FA1203" fill-opacity="0.5"/>
<path d="M401.03 184.351L362.604 163.974C354.908 159.895 350.098 151.89 350.098 143.185V58.7617H325.07V143.185C325.07 151.89 329.881 159.895 337.577 163.974L376.002 184.351C383.698 188.431 388.509 196.435 388.509 205.14V488.471C388.509 501.461 377.97 512 364.969 512H389.996C402.997 512 413.536 501.461 413.536 488.471V442.648L403.308 348.829L413.536 236.344V205.14C413.536 196.435 408.725 188.431 401.03 184.351V184.351Z" fill="#FA1203" fill-opacity="0.5"/>
<path d="M366.252 11.6101V69.8566C366.252 76.2746 361.06 81.4667 354.652 81.4667H157.877C151.469 81.4667 146.277 76.2746 146.277 69.8566V11.6101C146.277 5.20241 151.469 0 157.877 0H354.652C361.06 0 366.252 5.20241 366.252 11.6101V11.6101Z" fill="#7A8C98"/>
<path d="M354.652 0.00195312H332.715C339.125 0.00195312 344.321 5.19819 344.321 11.608V69.8616C344.321 76.2714 339.125 81.4676 332.715 81.4676H354.652C361.061 81.4676 366.258 76.2714 366.258 69.8616V11.608C366.258 5.19819 361.061 0.00195312 354.652 0.00195312V0.00195312Z" fill="#6A808C" fill-opacity="0.8"/>
<path d="M99.0039 236.344H413.539V442.648H99.0039V236.344Z" fill="#EAF6FF" fill-opacity="0.7"/>
<path d="M388.512 236.344H413.539V442.648H388.512V236.344Z" fill="#EAF6FF" fill-opacity="0.7"/>
<path d="M371.262 339.496C371.262 384.824 344.982 424.012 306.834 442.648H206.185C168.038 424.012 141.758 384.824 141.758 339.496C141.758 294.168 168.038 254.98 206.185 236.344H306.834C344.982 254.98 371.262 294.168 371.262 339.496Z" fill="#FFC700"/>
<path d="M306.832 236.344H281.805C319.952 254.98 346.232 294.168 346.232 339.496C346.232 384.824 319.952 424.012 281.805 442.648H306.832C344.979 424.012 371.259 384.824 371.259 339.496C371.259 294.168 344.979 254.98 306.832 236.344V236.344Z" fill="#FFC700"/>
<path d="M175.422 0H190.875V81.4667H175.422V0Z" fill="#6A808C" fill-opacity="0.8"/>
<path d="M212.098 0H227.55V81.4667H212.098V0Z" fill="#6A808C" fill-opacity="0.8"/>
<path d="M248.781 0H264.234V81.4667H248.781V0Z" fill="#6A808C" fill-opacity="0.8"/>
<path d="M285.457 0H300.91V81.4667H285.457V0Z" fill="#6A808C" fill-opacity="0.8"/>
<path d="M322.141 0H337.593V81.4667H322.141V0Z" fill="#6A808C" fill-opacity="0.8"/>
<path d="M300.774 411.613H226.312L209.588 458H185.418L253.289 280.266H273.797L341.79 458H317.742L300.774 411.613ZM233.392 392.326H293.816L263.543 309.196L233.392 392.326Z" fill="#FB0101"/>
<path d="M415.996 205.939V236.96L403.349 339.505L415.996 442.055V487.609C415.996 500.524 405.341 511.001 392.197 511.001H121.799C108.655 511.001 98 500.524 98 487.609V442.055L112.211 339.505L98 236.96V205.939C98 197.285 102.864 189.327 110.644 185.271L149.493 165.014C157.273 160.958 162.137 153.001 162.137 144.347V60.418H351.859V144.347C351.859 153.001 356.723 160.958 364.503 165.014L403.352 185.271C411.132 189.327 415.996 197.285 415.996 205.939Z" fill="#B50404"/>
<path d="M403.354 185.271L364.505 165.014C356.725 160.958 351.861 153.001 351.861 144.347V60.418H326.559V144.347C326.559 153.001 331.422 160.958 339.203 165.014L378.051 185.271C385.831 189.327 390.695 197.285 390.695 205.939V487.609C390.695 500.524 380.04 511.001 366.896 511.001H392.199C405.343 511.001 415.998 500.524 415.998 487.609V442.055L405.658 348.785L415.998 236.96V205.939C415.998 197.285 411.134 189.327 403.354 185.271V185.271Z" fill="#B50404"/>
<path d="M368.196 13.5421V71.4473C368.196 77.8277 362.946 82.9894 356.468 82.9894H157.528C151.05 82.9894 145.801 77.8277 145.801 71.4473V13.5421C145.801 7.17193 151.05 2 157.528 2H356.468C362.946 2 368.196 7.17193 368.196 13.5421V13.5421Z" fill="#7A8C98"/>
<path d="M356.463 2H334.285C340.765 2 346.019 7.16579 346.019 13.538V71.4503C346.019 77.8226 340.765 82.9883 334.285 82.9883H356.463C362.943 82.9883 368.197 77.8226 368.197 71.4503V13.538C368.197 7.16579 362.943 2 356.463 2V2Z" fill="#6A808C"/>
<path d="M98.0039 236.959H416V442.054H98.0039V236.959Z" fill="#EAF6FF"/>
<path d="M390.695 236.959H415.998V442.054H390.695V236.959Z" fill="#EAF6FF"/>
<path d="M184.15 356L178.13 340.53H158.32L152.37 356H146L165.53 305.81H171.2L190.66 356H184.15ZM170.64 319.81C170.5 319.437 170.267 318.76 169.94 317.78C169.613 316.8 169.287 315.797 168.96 314.77C168.68 313.697 168.447 312.88 168.26 312.32C167.933 313.767 167.56 315.19 167.14 316.59C166.72 317.943 166.37 319.017 166.09 319.81L160.42 334.93H176.24L170.64 319.81ZM221.087 345.64C221.087 349.28 219.734 352.033 217.027 353.9C214.32 355.767 210.68 356.7 206.107 356.7C203.494 356.7 201.23 356.49 199.317 356.07C197.45 355.65 195.794 355.067 194.347 354.32V348.72C195.84 349.467 197.637 350.167 199.737 350.82C201.884 351.427 204.054 351.73 206.247 351.73C209.374 351.73 211.637 351.24 213.037 350.26C214.437 349.233 215.137 347.88 215.137 346.2C215.137 345.267 214.88 344.427 214.367 343.68C213.854 342.933 212.92 342.187 211.567 341.44C210.26 340.693 208.37 339.853 205.897 338.92C203.47 337.987 201.394 337.053 199.667 336.12C197.94 335.187 196.61 334.067 195.677 332.76C194.744 331.453 194.277 329.773 194.277 327.72C194.277 324.547 195.56 322.097 198.127 320.37C200.74 318.643 204.147 317.78 208.347 317.78C210.634 317.78 212.757 318.013 214.717 318.48C216.724 318.9 218.59 319.507 220.317 320.3L218.217 325.2C216.63 324.547 214.974 323.987 213.247 323.52C211.52 323.053 209.747 322.82 207.927 322.82C205.407 322.82 203.47 323.24 202.117 324.08C200.81 324.873 200.157 325.97 200.157 327.37C200.157 328.397 200.46 329.283 201.067 330.03C201.674 330.73 202.677 331.43 204.077 332.13C205.524 332.783 207.437 333.577 209.817 334.51C212.197 335.397 214.227 336.307 215.907 337.24C217.587 338.173 218.87 339.317 219.757 340.67C220.644 341.977 221.087 343.633 221.087 345.64ZM248.003 317.78C252.623 317.78 256.333 319.39 259.133 322.61C261.98 325.83 263.403 330.683 263.403 337.17C263.403 343.563 261.98 348.417 259.133 351.73C256.333 355.043 252.6 356.7 247.933 356.7C245.04 356.7 242.636 356.163 240.723 355.09C238.856 353.97 237.386 352.687 236.313 351.24H235.893C235.986 352.033 236.08 353.037 236.173 354.25C236.266 355.463 236.313 356.513 236.313 357.4V372.8H230.153V318.48H235.193L236.033 323.59H236.313C237.433 321.957 238.903 320.58 240.723 319.46C242.543 318.34 244.97 317.78 248.003 317.78ZM246.883 322.96C243.056 322.96 240.35 324.033 238.763 326.18C237.223 328.327 236.406 331.593 236.313 335.98V337.17C236.313 341.79 237.06 345.36 238.553 347.88C240.093 350.353 242.916 351.59 247.023 351.59C249.31 351.59 251.176 350.96 252.623 349.7C254.116 348.44 255.213 346.737 255.913 344.59C256.66 342.397 257.033 339.9 257.033 337.1C257.033 332.807 256.193 329.377 254.513 326.81C252.88 324.243 250.336 322.96 246.883 322.96ZM276.37 304.41C277.303 304.41 278.12 304.737 278.82 305.39C279.566 305.997 279.94 306.977 279.94 308.33C279.94 309.637 279.566 310.617 278.82 311.27C278.12 311.923 277.303 312.25 276.37 312.25C275.343 312.25 274.48 311.923 273.78 311.27C273.08 310.617 272.73 309.637 272.73 308.33C272.73 306.977 273.08 305.997 273.78 305.39C274.48 304.737 275.343 304.41 276.37 304.41ZM279.38 318.48V356H273.22V318.48H279.38ZM308.766 317.78C309.466 317.78 310.213 317.827 311.006 317.92C311.846 317.967 312.57 318.06 313.176 318.2L312.406 323.87C311.8 323.73 311.123 323.613 310.376 323.52C309.676 323.427 309 323.38 308.346 323.38C306.433 323.38 304.636 323.917 302.956 324.99C301.276 326.017 299.923 327.487 298.896 329.4C297.916 331.267 297.426 333.46 297.426 335.98V356H291.266V318.48H296.306L297.006 325.34H297.286C298.5 323.287 300.063 321.513 301.976 320.02C303.89 318.527 306.153 317.78 308.766 317.78ZM323.332 304.41C324.266 304.41 325.082 304.737 325.782 305.39C326.529 305.997 326.902 306.977 326.902 308.33C326.902 309.637 326.529 310.617 325.782 311.27C325.082 311.923 324.266 312.25 323.332 312.25C322.306 312.25 321.442 311.923 320.742 311.27C320.042 310.617 319.692 309.637 319.692 308.33C319.692 306.977 320.042 305.997 320.742 305.39C321.442 304.737 322.306 304.41 323.332 304.41ZM326.342 318.48V356H320.182V318.48H326.342ZM356.289 317.78C360.769 317.78 364.153 318.877 366.439 321.07C368.726 323.217 369.869 326.717 369.869 331.57V356H363.779V331.99C363.779 325.97 360.979 322.96 355.379 322.96C351.226 322.96 348.356 324.127 346.769 326.46C345.183 328.793 344.389 332.153 344.389 336.54V356H338.229V318.48H343.199L344.109 323.59H344.459C345.673 321.63 347.353 320.183 349.499 319.25C351.646 318.27 353.909 317.78 356.289 317.78Z" fill="#FB0101"/>
<path d="M175.266 2H190.888V82.9894H175.266V2Z" fill="#6A808C"/>
<path d="M212.34 2H227.963V82.9894H212.34V2Z" fill="#6A808C"/>
<path d="M249.43 2H265.052V82.9894H249.43V2Z" fill="#6A808C"/>
<path d="M286.512 2H302.134V82.9894H286.512V2Z" fill="#6A808C"/>
<path d="M322.426 2H338.049V82.9894H322.426V2Z" fill="#6A808C"/>
</g>
<defs>
<clipPath id="clip0">
<rect width="512" height="512" fill="white"/>
</clipPath>
</defs>
</svg>
