<svg width="512" height="512" viewBox="0 0 512 512" fill="none" xmlns="http://www.w3.org/2000/svg">
<path d="M413.535 205.14V236.344L401.025 339.493L413.535 442.648V488.471C413.535 501.461 402.996 512 389.995 512H122.54C109.539 512 99 501.461 99 488.471V442.648L113.057 339.493L99 236.344V205.14C99 196.435 103.811 188.431 111.506 184.351L149.932 163.974C157.628 159.895 162.439 151.89 162.439 143.185V58.7617H350.096V143.185C350.096 151.89 354.907 159.895 362.603 163.974L401.029 184.351C408.724 188.431 413.535 196.435 413.535 205.14Z" fill="#FA1203" fill-opacity="0.5"/>
<path d="M401.03 184.351L362.604 163.974C354.908 159.895 350.098 151.89 350.098 143.185V58.7617H325.07V143.185C325.07 151.89 329.881 159.895 337.577 163.974L376.002 184.351C383.698 188.431 388.509 196.435 388.509 205.14V488.471C388.509 501.461 377.97 512 364.969 512H389.996C402.997 512 413.536 501.461 413.536 488.471V442.648L403.308 348.829L413.536 236.344V205.14C413.536 196.435 408.725 188.431 401.03 184.351Z" fill="#FA1203" fill-opacity="0.5"/>
<path d="M366.252 11.6101V69.8566C366.252 76.2746 361.06 81.4667 354.652 81.4667H157.877C151.469 81.4667 146.277 76.2746 146.277 69.8566V11.6101C146.277 5.20241 151.469 0 157.877 0H354.652C361.06 0 366.252 5.20241 366.252 11.6101Z" fill="#7A8C98"/>
<path d="M354.652 0.00195312H332.715C339.125 0.00195312 344.321 5.19819 344.321 11.608V69.8616C344.321 76.2714 339.125 81.4676 332.715 81.4676H354.652C361.061 81.4676 366.258 76.2714 366.258 69.8616V11.608C366.258 5.19819 361.061 0.00195312 354.652 0.00195312Z" fill="#6A808C" fill-opacity="0.8"/>
<path d="M99.0039 236.344H413.539V442.648H99.0039V236.344Z" fill="#EAF6FF" fill-opacity="0.7"/>
<path d="M388.512 236.344H413.539V442.648H388.512V236.344Z" fill="#EAF6FF" fill-opacity="0.7"/>
<path d="M371.262 339.496C371.262 384.824 344.982 424.012 306.834 442.648H206.185C168.038 424.012 141.758 384.824 141.758 339.496C141.758 294.168 168.038 254.98 206.185 236.344H306.834C344.982 254.98 371.262 294.168 371.262 339.496Z" fill="#FFC700"/>
<path d="M306.832 236.344H281.805C319.952 254.98 346.232 294.168 346.232 339.496C346.232 384.824 319.952 424.012 281.805 442.648H306.832C344.979 424.012 371.259 384.824 371.259 339.496C371.259 294.168 344.979 254.98 306.832 236.344Z" fill="#FFC700"/>
<path d="M175.422 0H190.875V81.4667H175.422V0Z" fill="#6A808C" fill-opacity="0.8"/>
<path d="M212.098 0H227.55V81.4667H212.098V0Z" fill="#6A808C" fill-opacity="0.8"/>
<path d="M248.781 0H264.234V81.4667H248.781V0Z" fill="#6A808C" fill-opacity="0.8"/>
<path d="M285.457 0H300.91V81.4667H285.457V0Z" fill="#6A808C" fill-opacity="0.8"/>
<path d="M322.141 0H337.593V81.4667H322.141V0Z" fill="#6A808C" fill-opacity="0.8"/>
<path d="M300.774 411.613H226.312L209.588 458H185.418L253.289 280.266H273.797L341.79 458H317.742L300.774 411.613ZM233.392 392.326H293.816L263.543 309.196L233.392 392.326Z" fill="#FB0101"/>
<path d="M415.996 205.939V236.96L403.349 339.505L415.996 442.055V487.609C415.996 500.524 405.341 511.001 392.197 511.001H121.799C108.655 511.001 98 500.524 98 487.609V442.055L112.211 339.505L98 236.96V205.939C98 197.285 102.864 189.327 110.644 185.271L149.493 165.014C157.273 160.958 162.137 153.001 162.137 144.347V60.418H351.859V144.347C351.859 153.001 356.723 160.958 364.503 165.014L403.352 185.271C411.132 189.327 415.996 197.285 415.996 205.939Z" fill="#B50404"/>
<path d="M403.354 185.271L364.505 165.014C356.725 160.958 351.861 153.001 351.861 144.347V60.418H326.559V144.347C326.559 153.001 331.422 160.958 339.203 165.014L378.051 185.271C385.831 189.327 390.695 197.285 390.695 205.939V487.609C390.695 500.524 380.04 511.001 366.896 511.001H392.199C405.343 511.001 415.998 500.524 415.998 487.609V442.055L405.658 348.785L415.998 236.96V205.939C415.998 197.285 411.134 189.327 403.354 185.271Z" fill="#B50404"/>
<path d="M368.196 13.5421V71.4473C368.196 77.8277 362.946 82.9894 356.468 82.9894H157.528C151.05 82.9894 145.801 77.8277 145.801 71.4473V13.5421C145.801 7.17193 151.05 2 157.528 2H356.468C362.946 2 368.196 7.17193 368.196 13.5421Z" fill="#7A8C98"/>
<path d="M356.463 2H334.285C340.765 2 346.019 7.16579 346.019 13.538V71.4503C346.019 77.8226 340.765 82.9883 334.285 82.9883H356.463C362.943 82.9883 368.197 77.8226 368.197 71.4503V13.538C368.197 7.16579 362.943 2 356.463 2Z" fill="#6A808C"/>
<path d="M98.0039 236.959H416V442.054H98.0039V236.959Z" fill="#EAF6FF"/>
<path d="M390.695 236.959H415.998V442.054H390.695V236.959Z" fill="#EAF6FF"/>
<path d="M175.266 2H190.888V82.9894H175.266V2Z" fill="#6A808C"/>
<path d="M212.34 2H227.963V82.9894H212.34V2Z" fill="#6A808C"/>
<path d="M249.43 2H265.052V82.9894H249.43V2Z" fill="#6A808C"/>
<path d="M286.512 2H302.134V82.9894H286.512V2Z" fill="#6A808C"/>
<path d="M322.426 2H338.049V82.9894H322.426V2Z" fill="#6A808C"/>
<g clip-path="url(#clip0)">
<path d="M343.521 305.681H290.319V252.479C290.319 249.453 287.866 247 284.84 247H226.16C223.134 247 220.681 249.453 220.681 252.479V305.681H167.479C164.453 305.681 162 308.134 162 311.16V369.84C162 372.866 164.453 375.319 167.479 375.319H220.681V428.521C220.681 431.547 223.134 434 226.16 434H284.84C287.866 434 290.319 431.547 290.319 428.521V375.319H343.521C346.547 375.319 349 372.866 349 369.84V311.16C349 308.134 346.547 305.681 343.521 305.681V305.681ZM338.043 364.362H284.84C281.815 364.362 279.362 366.815 279.362 369.84V423.043H231.638V369.84C231.638 366.815 229.185 364.362 226.16 364.362H172.957V316.638H226.16C229.185 316.638 231.638 314.185 231.638 311.16V257.957H279.362V311.16C279.362 314.185 281.815 316.638 284.84 316.638H338.043V364.362Z" fill="#12D212"/>
<rect x="227.375" y="257.592" width="55.5156" height="165.816" fill="#12D212"/>
<rect x="171.133" y="316.395" width="169.469" height="49.3066" fill="#12D212"/>
</g>
<defs>
<clipPath id="clip0">
<rect width="187" height="187" fill="white" transform="translate(162 247)"/>
</clipPath>
</defs>
</svg>
