<svg width="512" height="512" viewBox="0 0 512 512" fill="none" xmlns="http://www.w3.org/2000/svg">
<path d="M407.996 203.939V234.96L395.349 337.505L407.996 440.055V485.609C407.996 498.524 397.341 509.001 384.197 509.001H113.799C100.655 509.001 90 498.524 90 485.609V440.055L104.211 337.505L90 234.96V203.939C90 195.285 94.8639 187.327 102.644 183.271L141.493 163.014C149.273 158.958 154.137 151.001 154.137 142.347V58.418H343.859V142.347C343.859 151.001 348.723 158.958 356.503 163.014L395.352 183.271C403.132 187.327 407.996 195.285 407.996 203.939Z" fill="#049FB5"/>
<path d="M395.354 183.271L356.505 163.014C348.725 158.958 343.861 151.001 343.861 142.347V58.418H318.559V142.347C318.559 151.001 323.422 158.958 331.203 163.014L370.051 183.271C377.831 187.327 382.695 195.285 382.695 203.939V485.609C382.695 498.524 372.04 509.001 358.896 509.001H384.199C397.343 509.001 407.998 498.524 407.998 485.609V440.055L397.658 346.785L407.998 234.96V203.939C407.998 195.285 403.134 187.327 395.354 183.271V183.271Z" fill="#049CB0"/>
<path d="M360.196 11.5421V69.4473C360.196 75.8277 354.946 80.9894 348.468 80.9894H149.528C143.05 80.9894 137.801 75.8277 137.801 69.4473V11.5421C137.801 5.17193 143.05 0 149.528 0H348.468C354.946 0 360.196 5.17193 360.196 11.5421V11.5421Z" fill="#7A8C98"/>
<path d="M348.463 0H326.285C332.765 0 338.019 5.16579 338.019 11.538V69.4503C338.019 75.8226 332.765 80.9883 326.285 80.9883H348.463C354.943 80.9883 360.197 75.8226 360.197 69.4503V11.538C360.197 5.16579 354.943 0 348.463 0V0Z" fill="#6A808C"/>
<path d="M90.0039 234.959H408V440.054H90.0039V234.959Z" fill="#EAF6FF"/>
<path d="M382.695 234.959H407.998V440.054H382.695V234.959Z" fill="#EAF6FF"/>
<path d="M167.266 0H182.888V80.9894H167.266V0Z" fill="#6A808C"/>
<path d="M204.34 0H219.963V80.9894H204.34V0Z" fill="#6A808C"/>
<path d="M241.43 0H257.052V80.9894H241.43V0Z" fill="#6A808C"/>
<path d="M278.512 0H294.134V80.9894H278.512V0Z" fill="#6A808C"/>
<path d="M314.426 0H330.049V80.9894H314.426V0Z" fill="#6A808C"/>
<path d="M256.5 236C194.422 236 144 281.94 144 338.5C144 395.06 194.422 441 256.5 441C318.578 441 369 395.06 369 338.5C369 281.94 318.578 236 256.5 236ZM256.5 432.108C199.843 432.108 153.759 390.12 153.759 338.5C153.759 286.88 199.843 244.892 256.5 244.892C313.157 244.892 359.241 286.88 359.241 338.5C359.241 390.12 313.157 432.108 256.5 432.108Z" fill="#FF0000"/>
<path d="M315.054 316.271H280.898V285.151C280.898 282.681 278.729 280.705 276.018 280.705H236.982C234.271 280.705 232.103 282.681 232.103 285.151V316.271H197.946C195.235 316.271 193.066 318.247 193.066 320.717V356.283C193.066 358.753 195.235 360.729 197.946 360.729H232.103V391.85C232.103 394.32 234.271 396.295 236.982 396.295H276.018C278.729 396.295 280.898 394.32 280.898 391.85V360.729H315.054C317.765 360.729 319.934 358.753 319.934 356.283V320.717C319.663 318.247 317.494 316.271 315.054 316.271ZM310.446 351.838H310.175H276.018C273.307 351.838 271.139 353.814 271.139 356.283V387.404H241.862V356.283C241.862 353.814 239.693 351.838 236.982 351.838H202.825V325.163H236.982C239.693 325.163 241.862 323.187 241.862 320.717V289.597H271.41V320.717C271.41 323.187 273.578 325.163 276.289 325.163H310.446V351.838Z" fill="#FF0000"/>
<rect x="240.914" y="289.102" width="33.2078" height="100.648" fill="#FF0000"/>
<rect width="31.4916" height="110.465" transform="matrix(0.0158386 0.999875 -0.999914 0.0131485 312.738 322.445)" fill="#FF0000"/>
</svg>
