<svg width="512" height="512" viewBox="0 0 512 512" fill="none" xmlns="http://www.w3.org/2000/svg">
<g clip-path="url(#clip0)">
<path d="M407.996 203.939V234.96L395.349 337.505L407.996 440.055V485.609C407.996 498.524 397.341 509.001 384.197 509.001H113.799C100.655 509.001 90 498.524 90 485.609V440.055L104.211 337.505L90 234.96V203.939C90 195.285 94.8639 187.327 102.644 183.271L141.493 163.014C149.273 158.958 154.137 151.001 154.137 142.347V58.418H343.859V142.347C343.859 151.001 348.723 158.958 356.503 163.014L395.352 183.271C403.132 187.327 407.996 195.285 407.996 203.939Z" fill="#049FB5"/>
<path d="M395.354 183.271L356.505 163.014C348.725 158.958 343.861 151.001 343.861 142.347V58.418H318.559V142.347C318.559 151.001 323.422 158.958 331.203 163.014L370.051 183.271C377.831 187.327 382.695 195.285 382.695 203.939V485.609C382.695 498.524 372.04 509.001 358.896 509.001H384.199C397.343 509.001 407.998 498.524 407.998 485.609V440.055L397.658 346.785L407.998 234.96V203.939C407.998 195.285 403.134 187.327 395.354 183.271V183.271Z" fill="#049CB0"/>
<path d="M360.196 11.5421V69.4473C360.196 75.8277 354.946 80.9894 348.468 80.9894H149.528C143.05 80.9894 137.801 75.8277 137.801 69.4473V11.5421C137.801 5.17193 143.05 0 149.528 0H348.468C354.946 0 360.196 5.17193 360.196 11.5421V11.5421Z" fill="#7A8C98"/>
<path d="M348.463 0H326.285C332.765 0 338.019 5.16579 338.019 11.538V69.4503C338.019 75.8226 332.765 80.9883 326.285 80.9883H348.463C354.943 80.9883 360.197 75.8226 360.197 69.4503V11.538C360.197 5.16579 354.943 0 348.463 0V0Z" fill="#6A808C"/>
<path d="M90.0039 234.959H408V440.054H90.0039V234.959Z" fill="#EAF6FF"/>
<path d="M382.695 234.959H407.998V440.054H382.695V234.959Z" fill="#EAF6FF"/>
<path d="M157.993 323.525C153.776 323.525 150.458 324.937 148.038 327.76C145.618 330.583 144.408 334.452 144.408 339.365C144.408 344.242 145.526 348.11 147.763 350.97C150.036 353.793 153.428 355.205 157.938 355.205C159.661 355.205 161.293 355.058 162.833 354.765C164.373 354.472 165.876 354.105 167.343 353.665V357.955C165.876 358.505 164.355 358.908 162.778 359.165C161.238 359.422 159.386 359.55 157.223 359.55C153.226 359.55 149.89 358.725 147.213 357.075C144.536 355.425 142.52 353.078 141.163 350.035C139.843 346.992 139.183 343.417 139.183 339.31C139.183 335.35 139.898 331.867 141.328 328.86C142.795 325.817 144.94 323.452 147.763 321.765C150.586 320.042 154.015 319.18 158.048 319.18C162.191 319.18 165.803 319.95 168.883 321.49L166.903 325.67C165.693 325.12 164.336 324.625 162.833 324.185C161.366 323.745 159.753 323.525 157.993 323.525ZM177.729 318.465C178.462 318.465 179.104 318.722 179.654 319.235C180.241 319.712 180.534 320.482 180.534 321.545C180.534 322.572 180.241 323.342 179.654 323.855C179.104 324.368 178.462 324.625 177.729 324.625C176.922 324.625 176.244 324.368 175.694 323.855C175.144 323.342 174.869 322.572 174.869 321.545C174.869 320.482 175.144 319.712 175.694 319.235C176.244 318.722 176.922 318.465 177.729 318.465ZM180.094 329.52V359H175.254V329.52H180.094ZM199.279 355.59C200.012 355.59 200.764 355.535 201.534 355.425C202.304 355.278 202.927 355.132 203.404 354.985V358.67C202.89 358.927 202.157 359.128 201.204 359.275C200.25 359.458 199.334 359.55 198.454 359.55C196.914 359.55 195.484 359.293 194.164 358.78C192.88 358.23 191.835 357.295 191.029 355.975C190.222 354.655 189.819 352.803 189.819 350.42V333.26H185.639V330.95L189.874 329.025L191.799 322.755H194.659V329.52H203.184V333.26H194.659V350.31C194.659 352.107 195.08 353.445 195.924 354.325C196.804 355.168 197.922 355.59 199.279 355.59ZM223.057 328.97C223.607 328.97 224.194 329.007 224.817 329.08C225.477 329.117 226.045 329.19 226.522 329.3L225.917 333.755C225.44 333.645 224.909 333.553 224.322 333.48C223.772 333.407 223.24 333.37 222.727 333.37C221.224 333.37 219.812 333.792 218.492 334.635C217.172 335.442 216.109 336.597 215.302 338.1C214.532 339.567 214.147 341.29 214.147 343.27V359H209.307V329.52H213.267L213.817 334.91H214.037C214.99 333.297 216.219 331.903 217.722 330.73C219.225 329.557 221.004 328.97 223.057 328.97ZM242.117 329.025C245.711 329.025 248.369 329.813 250.092 331.39C251.816 332.967 252.677 335.478 252.677 338.925V359H249.157L248.222 354.82H248.002C246.719 356.433 245.362 357.625 243.932 358.395C242.539 359.165 240.596 359.55 238.102 359.55C235.426 359.55 233.207 358.853 231.447 357.46C229.687 356.03 228.807 353.812 228.807 350.805C228.807 347.872 229.962 345.617 232.272 344.04C234.582 342.427 238.139 341.547 242.942 341.4L247.947 341.235V339.475C247.947 337.018 247.416 335.313 246.352 334.36C245.289 333.407 243.786 332.93 241.842 332.93C240.302 332.93 238.836 333.168 237.442 333.645C236.049 334.085 234.747 334.598 233.537 335.185L232.052 331.555C233.336 330.858 234.857 330.272 236.617 329.795C238.377 329.282 240.211 329.025 242.117 329.025ZM243.547 344.755C239.881 344.902 237.332 345.488 235.902 346.515C234.509 347.542 233.812 348.99 233.812 350.86C233.812 352.51 234.307 353.72 235.297 354.49C236.324 355.26 237.626 355.645 239.202 355.645C241.696 355.645 243.767 354.967 245.417 353.61C247.067 352.217 247.892 350.09 247.892 347.23V344.59L243.547 344.755ZM294.122 328.97C297.459 328.97 299.952 329.832 301.602 331.555C303.252 333.242 304.077 335.992 304.077 339.805V359H299.292V340.025C299.292 335.368 297.294 333.04 293.297 333.04C290.437 333.04 288.384 333.865 287.137 335.515C285.927 337.165 285.322 339.567 285.322 342.72V359H280.537V340.025C280.537 335.368 278.521 333.04 274.487 333.04C271.517 333.04 269.464 333.957 268.327 335.79C267.191 337.623 266.622 340.263 266.622 343.71V359H261.782V329.52H265.687L266.402 333.535H266.677C267.594 331.995 268.822 330.858 270.362 330.125C271.939 329.355 273.607 328.97 275.367 328.97C279.987 328.97 282.994 330.62 284.387 333.92H284.662C285.652 332.233 286.991 330.987 288.677 330.18C290.401 329.373 292.216 328.97 294.122 328.97ZM338.814 344.205C338.814 349.082 337.567 352.858 335.074 355.535C332.617 358.212 329.28 359.55 325.064 359.55C322.46 359.55 320.132 358.963 318.079 357.79C316.062 356.58 314.467 354.838 313.294 352.565C312.12 350.255 311.534 347.468 311.534 344.205C311.534 339.328 312.762 335.57 315.219 332.93C317.675 330.29 321.012 328.97 325.229 328.97C327.905 328.97 330.252 329.575 332.269 330.785C334.322 331.958 335.917 333.682 337.054 335.955C338.227 338.192 338.814 340.942 338.814 344.205ZM316.539 344.205C316.539 347.688 317.217 350.457 318.574 352.51C319.967 354.527 322.167 355.535 325.174 355.535C328.144 355.535 330.325 354.527 331.719 352.51C333.112 350.457 333.809 347.688 333.809 344.205C333.809 340.722 333.112 337.99 331.719 336.01C330.325 334.03 328.125 333.04 325.119 333.04C322.112 333.04 319.93 334.03 318.574 336.01C317.217 337.99 316.539 340.722 316.539 344.205ZM360.675 328.97C364.195 328.97 366.853 329.832 368.65 331.555C370.446 333.242 371.345 335.992 371.345 339.805V359H366.56V340.135C366.56 335.405 364.36 333.04 359.96 333.04C356.696 333.04 354.441 333.957 353.195 335.79C351.948 337.623 351.325 340.263 351.325 343.71V359H346.485V329.52H350.39L351.105 333.535H351.38C352.333 331.995 353.653 330.858 355.34 330.125C357.026 329.355 358.805 328.97 360.675 328.97Z" fill="#FB0101"/>
<path d="M167.266 0H182.888V80.9894H167.266V0Z" fill="#6A808C"/>
<path d="M204.34 0H219.963V80.9894H204.34V0Z" fill="#6A808C"/>
<path d="M241.43 0H257.052V80.9894H241.43V0Z" fill="#6A808C"/>
<path d="M278.512 0H294.134V80.9894H278.512V0Z" fill="#6A808C"/>
<path d="M314.426 0H330.049V80.9894H314.426V0Z" fill="#6A808C"/>
</g>
<defs>
<clipPath id="clip0">
<rect width="512" height="512" fill="white"/>
</clipPath>
</defs>
</svg>
