<svg width="512" height="512" viewBox="0 0 512 512" fill="none" xmlns="http://www.w3.org/2000/svg">
<path d="M407.996 203.939V234.96L395.349 337.505L407.996 440.055V485.609C407.996 498.524 397.341 509.001 384.197 509.001H113.799C100.655 509.001 90 498.524 90 485.609V440.055L104.211 337.505L90 234.96V203.939C90 195.285 94.8639 187.327 102.644 183.271L141.493 163.014C149.273 158.958 154.137 151.001 154.137 142.347V58.418H343.859V142.347C343.859 151.001 348.723 158.958 356.503 163.014L395.352 183.271C403.132 187.327 407.996 195.285 407.996 203.939Z" fill="#108C05"/>
<path d="M395.354 183.271L356.505 163.014C348.725 158.958 343.861 151.001 343.861 142.347V58.418H318.559V142.347C318.559 151.001 323.422 158.958 331.203 163.014L370.051 183.271C377.831 187.327 382.695 195.285 382.695 203.939V485.609C382.695 498.524 372.04 509.001 358.896 509.001H384.199C397.343 509.001 407.998 498.524 407.998 485.609V440.055L397.658 346.785L407.998 234.96V203.939C407.998 195.285 403.134 187.327 395.354 183.271Z" fill="#238600"/>
<path d="M360.196 11.5421V69.4473C360.196 75.8277 354.946 80.9894 348.468 80.9894H149.528C143.05 80.9894 137.801 75.8277 137.801 69.4473V11.5421C137.801 5.17193 143.05 0 149.528 0H348.468C354.946 0 360.196 5.17193 360.196 11.5421Z" fill="#7A8C98"/>
<path d="M348.463 0H326.285C332.765 0 338.019 5.16579 338.019 11.538V69.4503C338.019 75.8226 332.765 80.9883 326.285 80.9883H348.463C354.943 80.9883 360.197 75.8226 360.197 69.4503V11.538C360.197 5.16579 354.943 0 348.463 0Z" fill="#6A808C"/>
<path d="M90.0039 234.959H408V440.054H90.0039V234.959Z" fill="#EAF6FF"/>
<path d="M382.695 234.959H407.998V440.054H382.695V234.959Z" fill="#EAF6FF"/>
<path d="M167.266 0H182.888V80.9894H167.266V0Z" fill="#6A808C"/>
<path d="M204.34 0H219.963V80.9894H204.34V0Z" fill="#6A808C"/>
<path d="M241.43 0H257.052V80.9894H241.43V0Z" fill="#6A808C"/>
<path d="M278.512 0H294.134V80.9894H278.512V0Z" fill="#6A808C"/>
<path d="M314.426 0H330.049V80.9894H314.426V0Z" fill="#6A808C"/>
<g clip-path="url(#clip0)">
<path d="M344.521 303.681H291.319V250.479C291.319 247.453 288.866 245 285.84 245H227.16C224.134 245 221.681 247.453 221.681 250.479V303.681H168.479C165.453 303.681 163 306.134 163 309.16V367.84C163 370.866 165.453 373.319 168.479 373.319H221.681V426.521C221.681 429.547 224.134 432 227.16 432H285.84C288.866 432 291.319 429.547 291.319 426.521V373.319H344.521C347.547 373.319 350 370.866 350 367.84V309.16C350 306.134 347.547 303.681 344.521 303.681V303.681ZM339.043 362.362H285.84C282.815 362.362 280.362 364.815 280.362 367.84V421.043H232.638V367.84C232.638 364.815 230.185 362.362 227.16 362.362H173.957V314.638H227.16C230.185 314.638 232.638 312.185 232.638 309.16V255.957H280.362V309.16C280.362 312.185 282.815 314.638 285.84 314.638H339.043V362.362Z" fill="#12D212"/>
<rect x="228.375" y="255.592" width="55.5156" height="165.816" fill="#12D212"/>
<rect x="172.133" y="314.395" width="169.469" height="49.3066" fill="#12D212"/>
</g>
<defs>
<clipPath id="clip0">
<rect width="187" height="187" fill="white" transform="translate(163 245)"/>
</clipPath>
</defs>
</svg>
