<svg width="512" height="512" viewBox="0 0 512 512" fill="none" xmlns="http://www.w3.org/2000/svg">
<g clip-path="url(#clip0)">
<path d="M413.535 205.14V236.344L401.025 339.493L413.535 442.648V488.471C413.535 501.461 402.996 512 389.995 512H122.54C109.539 512 99 501.461 99 488.471V442.648L113.057 339.493L99 236.344V205.14C99 196.435 103.811 188.431 111.506 184.351L149.932 163.974C157.628 159.895 162.439 151.89 162.439 143.185V58.7617H350.096V143.185C350.096 151.89 354.907 159.895 362.603 163.974L401.029 184.351C408.724 188.431 413.535 196.435 413.535 205.14Z" fill="#FA1203" fill-opacity="0.5"/>
<path d="M401.03 184.351L362.604 163.974C354.908 159.895 350.098 151.89 350.098 143.185V58.7617H325.07V143.185C325.07 151.89 329.881 159.895 337.577 163.974L376.002 184.351C383.698 188.431 388.509 196.435 388.509 205.14V488.471C388.509 501.461 377.97 512 364.969 512H389.996C402.997 512 413.536 501.461 413.536 488.471V442.648L403.308 348.829L413.536 236.344V205.14C413.536 196.435 408.725 188.431 401.03 184.351Z" fill="#FA1203" fill-opacity="0.5"/>
<path d="M366.252 11.6101V69.8566C366.252 76.2746 361.06 81.4667 354.652 81.4667H157.877C151.469 81.4667 146.277 76.2746 146.277 69.8566V11.6101C146.277 5.20241 151.469 0 157.877 0H354.652C361.06 0 366.252 5.20241 366.252 11.6101Z" fill="#7A8C98"/>
<path d="M354.652 0.00195312H332.715C339.125 0.00195312 344.321 5.19819 344.321 11.608V69.8616C344.321 76.2714 339.125 81.4676 332.715 81.4676H354.652C361.061 81.4676 366.258 76.2714 366.258 69.8616V11.608C366.258 5.19819 361.061 0.00195312 354.652 0.00195312Z" fill="#6A808C" fill-opacity="0.8"/>
<path d="M99.0039 236.344H413.539V442.648H99.0039V236.344Z" fill="#EAF6FF" fill-opacity="0.7"/>
<path d="M388.512 236.344H413.539V442.648H388.512V236.344Z" fill="#EAF6FF" fill-opacity="0.7"/>
<path d="M371.262 339.496C371.262 384.824 344.982 424.012 306.834 442.648H206.185C168.038 424.012 141.758 384.824 141.758 339.496C141.758 294.168 168.038 254.98 206.185 236.344H306.834C344.982 254.98 371.262 294.168 371.262 339.496Z" fill="#FFC700"/>
<path d="M306.832 236.344H281.805C319.952 254.98 346.232 294.168 346.232 339.496C346.232 384.824 319.952 424.012 281.805 442.648H306.832C344.979 424.012 371.259 384.824 371.259 339.496C371.259 294.168 344.979 254.98 306.832 236.344Z" fill="#FFC700"/>
<path d="M175.422 0H190.875V81.4667H175.422V0Z" fill="#6A808C" fill-opacity="0.8"/>
<path d="M212.098 0H227.55V81.4667H212.098V0Z" fill="#6A808C" fill-opacity="0.8"/>
<path d="M248.781 0H264.234V81.4667H248.781V0Z" fill="#6A808C" fill-opacity="0.8"/>
<path d="M285.457 0H300.91V81.4667H285.457V0Z" fill="#6A808C" fill-opacity="0.8"/>
<path d="M322.141 0H337.593V81.4667H322.141V0Z" fill="#6A808C" fill-opacity="0.8"/>
<path d="M293.505 368.613H219.042L202.318 415H178.148L246.02 237.266H266.527L334.521 415H310.473L293.505 368.613ZM226.122 349.326H286.547L256.273 266.196L226.122 349.326Z" fill="#FB0101"/>
<path d="M415.996 206.521V237.542L403.349 340.087L415.996 442.637V488.191C415.996 501.106 405.341 511.583 392.197 511.583H121.799C108.655 511.583 98 501.106 98 488.191V442.637L112.211 340.087L98 237.542V206.521C98 197.867 102.864 189.909 110.644 185.853L149.493 165.596C157.273 161.54 162.137 153.583 162.137 144.929V61H351.859V144.929C351.859 153.583 356.723 161.54 364.503 165.596L403.352 185.853C411.132 189.909 415.996 197.867 415.996 206.521Z" fill="#FFB800"/>
<path d="M403.354 183.271L364.505 163.014C356.725 158.958 351.861 151.001 351.861 142.347V58.418H326.559V142.347C326.559 151.001 331.422 158.958 339.203 163.014L378.051 183.271C385.831 187.327 390.695 195.285 390.695 203.939V485.609C390.695 498.524 380.04 509.001 366.896 509.001H392.199C405.343 509.001 415.998 498.524 415.998 485.609V440.055L405.658 346.785L415.998 234.96V203.939C415.998 195.285 411.134 187.327 403.354 183.271V183.271Z" fill="#FFB800"/>
<path d="M368.196 11.5421V69.4473C368.196 75.8277 362.946 80.9894 356.468 80.9894H157.528C151.05 80.9894 145.801 75.8277 145.801 69.4473V11.5421C145.801 5.17193 151.05 0 157.528 0H356.468C362.946 0 368.196 5.17193 368.196 11.5421V11.5421Z" fill="#7A8C98"/>
<path d="M356.463 0H334.285C340.765 0 346.019 5.16579 346.019 11.538V69.4503C346.019 75.8226 340.765 80.9883 334.285 80.9883H356.463C362.943 80.9883 368.197 75.8226 368.197 69.4503V11.538C368.197 5.16579 362.943 0 356.463 0V0Z" fill="#6A808C"/>
<path d="M98.0039 234.959H416V440.054H98.0039V234.959Z" fill="#EAF6FF"/>
<path d="M390.695 234.959H415.998V440.054H390.695V234.959Z" fill="#EAF6FF"/>
<path d="M185.14 333.16C185.14 340.4 183.16 345.86 179.2 349.54C175.28 353.18 169.8 355 162.76 355H150.82V312.16H164.02C168.34 312.16 172.08 312.96 175.24 314.56C178.4 316.16 180.84 318.52 182.56 321.64C184.28 324.72 185.14 328.56 185.14 333.16ZM179.44 333.34C179.44 327.62 178.02 323.44 175.18 320.8C172.38 318.12 168.4 316.78 163.24 316.78H156.22V350.38H162.04C173.64 350.38 179.44 344.7 179.44 333.34ZM196.628 310.78C197.428 310.78 198.128 311.06 198.728 311.62C199.368 312.14 199.688 312.98 199.688 314.14C199.688 315.26 199.368 316.1 198.728 316.66C198.128 317.22 197.428 317.5 196.628 317.5C195.748 317.5 195.008 317.22 194.408 316.66C193.808 316.1 193.508 315.26 193.508 314.14C193.508 312.98 193.808 312.14 194.408 311.62C195.008 311.06 195.748 310.78 196.628 310.78ZM199.208 322.84V355H193.928V322.84H199.208ZM244.677 322.24C248.317 322.24 251.037 323.18 252.837 325.06C254.637 326.9 255.537 329.9 255.537 334.06V355H250.317V334.3C250.317 329.22 248.137 326.68 243.777 326.68C240.657 326.68 238.417 327.58 237.057 329.38C235.737 331.18 235.077 333.8 235.077 337.24V355H229.857V334.3C229.857 329.22 227.657 326.68 223.257 326.68C220.017 326.68 217.777 327.68 216.537 329.68C215.297 331.68 214.677 334.56 214.677 338.32V355H209.397V322.84H213.657L214.437 327.22H214.737C215.737 325.54 217.077 324.3 218.757 323.5C220.477 322.66 222.297 322.24 224.217 322.24C229.257 322.24 232.537 324.04 234.057 327.64H234.357C235.437 325.8 236.897 324.44 238.737 323.56C240.617 322.68 242.597 322.24 244.677 322.24ZM268.171 310.78C268.971 310.78 269.671 311.06 270.271 311.62C270.911 312.14 271.231 312.98 271.231 314.14C271.231 315.26 270.911 316.1 270.271 316.66C269.671 317.22 268.971 317.5 268.171 317.5C267.291 317.5 266.551 317.22 265.951 316.66C265.351 316.1 265.051 315.26 265.051 314.14C265.051 312.98 265.351 312.14 265.951 311.62C266.551 311.06 267.291 310.78 268.171 310.78ZM270.751 322.84V355H265.471V322.84H270.751ZM292.34 355.6C288.34 355.6 285.14 354.22 282.74 351.46C280.34 348.66 279.14 344.5 279.14 338.98C279.14 333.46 280.34 329.3 282.74 326.5C285.18 323.66 288.4 322.24 292.4 322.24C294.88 322.24 296.9 322.7 298.46 323.62C300.06 324.54 301.36 325.66 302.36 326.98H302.72C302.68 326.46 302.6 325.7 302.48 324.7C302.4 323.66 302.36 322.84 302.36 322.24V309.4H307.64V355H303.38L302.6 350.68H302.36C301.4 352.04 300.12 353.2 298.52 354.16C296.92 355.12 294.86 355.6 292.34 355.6ZM293.18 351.22C296.58 351.22 298.96 350.3 300.32 348.46C301.72 346.58 302.42 343.76 302.42 340V339.04C302.42 335.04 301.76 331.98 300.44 329.86C299.12 327.7 296.68 326.62 293.12 326.62C290.28 326.62 288.14 327.76 286.7 330.04C285.3 332.28 284.6 335.3 284.6 339.1C284.6 342.94 285.3 345.92 286.7 348.04C288.14 350.16 290.3 351.22 293.18 351.22ZM332.854 322.24C333.454 322.24 334.094 322.28 334.774 322.36C335.494 322.4 336.114 322.48 336.634 322.6L335.974 327.46C335.454 327.34 334.874 327.24 334.234 327.16C333.634 327.08 333.054 327.04 332.494 327.04C330.854 327.04 329.314 327.5 327.874 328.42C326.434 329.3 325.274 330.56 324.394 332.2C323.554 333.8 323.134 335.68 323.134 337.84V355H317.854V322.84H322.174L322.774 328.72H323.014C324.054 326.96 325.394 325.44 327.034 324.16C328.674 322.88 330.614 322.24 332.854 322.24ZM369.427 338.86C369.427 344.18 368.067 348.3 365.347 351.22C362.667 354.14 359.027 355.6 354.427 355.6C351.587 355.6 349.047 354.96 346.807 353.68C344.607 352.36 342.867 350.46 341.587 347.98C340.307 345.46 339.667 342.42 339.667 338.86C339.667 333.54 341.007 329.44 343.687 326.56C346.367 323.68 350.007 322.24 354.607 322.24C357.527 322.24 360.087 322.9 362.287 324.22C364.527 325.5 366.267 327.38 367.507 329.86C368.787 332.3 369.427 335.3 369.427 338.86ZM345.127 338.86C345.127 342.66 345.867 345.68 347.347 347.92C348.867 350.12 351.267 351.22 354.547 351.22C357.787 351.22 360.167 350.12 361.687 347.92C363.207 345.68 363.967 342.66 363.967 338.86C363.967 335.06 363.207 332.08 361.687 329.92C360.167 327.76 357.767 326.68 354.487 326.68C351.207 326.68 348.827 327.76 347.347 329.92C345.867 332.08 345.127 335.06 345.127 338.86ZM383.075 355H377.795V309.4H383.075V355Z" fill="#FB0101"/>
<path d="M175.266 0H190.888V80.9894H175.266V0Z" fill="#6A808C"/>
<path d="M212.34 0H227.963V80.9894H212.34V0Z" fill="#6A808C"/>
<path d="M249.43 0H265.052V80.9894H249.43V0Z" fill="#6A808C"/>
<path d="M286.512 0H302.134V80.9894H286.512V0Z" fill="#6A808C"/>
<path d="M322.426 0H338.049V80.9894H322.426V0Z" fill="#6A808C"/>
</g>
<defs>
<clipPath id="clip0">
<rect width="512" height="512" fill="white"/>
</clipPath>
</defs>
</svg>
