<svg height="482pt" viewBox="-82 0 482 482.00001" width="482pt" xmlns="http://www.w3.org/2000/svg"><path d="m308.433594 392.769531v39.230469c-.070313 22.0625-17.9375 39.933594-40 40h-218.859375c-22.066407-.066406-39.933594-17.9375-40-40v-39.230469zm0 0" fill="#00efd1"/><path d="m308.433594 203.578125v189.191406h-298.859375v-189.191406zm-80.429688 115.421875v-40h-49v-49h-40v49h-49v40h49v49h40v-49zm0 0" fill="#00acea"/><path d="m308.433594 191.398438v12.179687h-298.859375v-12.179687c.007812-16.046876 4.777343-31.730469 13.699219-45.070313 8.742187-13.210937 21.285156-23.46875 35.96875-29.417969h199.519531c14.785156 5.867188 27.410156 16.144532 36.160156 29.429688 8.832031 13.367187 13.53125 29.039062 13.511719 45.058594zm0 0" fill="#00efd1"/><path d="m59.242188 79.660156h-9.941407v-59.660156c0-5.523438 4.480469-10 10-10h199.402344c5.523437 0 10 4.476562 10 10v59.660156zm0 0" fill="#00efd1"/><path d="m59.242188 79.660156h199.519531v37.25h-199.519531zm0 0" fill="#00acea"/><path d="m228.003906 279v40h-49v49h-40v-49h-49v-40h49v-49h40v49zm0 0" fill="#fedb41"/><g fill="#083863"><path d="m318.003906 432v-240.601562c.15625-17.957032-5.007812-35.558594-14.84375-50.585938-8.433594-13.035156-20.234375-23.539062-34.15625-30.40625v-20.75c5.4375-.199219 9.800782-4.5625 10-10v-59.65625c-.15625-11.097656-9.203125-20.0117188-20.300781-20h-199.402344c-11.097656-.0117188-20.144531 8.902344-20.296875 20v59.660156c.199219 5.4375 4.558594 9.800782 10 10v20.785156c-14 6.824219-25.195312 17.207032-33.949218 30.332032-9.941407 15-15.179688 32.625-15.05078175 50.621094v240.632812c-.08593745 27.476562 22.09374975 49.832031 49.57031275 49.96875h218.886719c27.476562-.152344 49.640624-22.523438 49.542968-50zm-298-218h278v169h-278zm49-124h180v17h-180zm-10-70h200v50h-200zm-27.203125 131.925781c7.464844-11.183593 17.472657-19.925781 29.441407-24.925781h195.523437c12.140625 5.148438 22.457031 13.828125 29.605469 24.910156 7.695312 11.726563 11.742187 25.464844 11.632812 39.488282v2.601562h-278v-2.601562c-.085937-14.039063 4.023438-27.78125 11.796875-39.472657zm17.800781 310.074219c-7.902343-.046875-15.464843-3.238281-21.019531-8.863281-5.550781-5.628907-8.636719-13.230469-8.578125-21.136719v-29h278v28.96875c.0625 7.90625-3.015625 15.511719-8.5625 21.144531-5.546875 5.632813-13.105468 8.832031-21.007812 8.886719zm0 0"/><path d="m228.003906 269h-39v-39c0-5.523438-4.480468-10-10-10h-40c-5.523437 0-10 4.476562-10 10v39h-39c-5.523437 0-10 4.476562-10 10v40c0 5.523438 4.476563 10 10 10h39v39c0 5.523438 4.476563 10 10 10h40c5.519532 0 10-4.476562 10-10v-39h39c5.519532 0 10-4.476562 10-10v-40c0-5.523438-4.480468-10-10-10zm-10 40h-39c-5.523437 0-10 4.476562-10 10v39h-20v-39c0-5.523438-4.480468-10-10-10h-39v-20h39c5.519532 0 10-4.476562 10-10v-39h20v39c0 5.523438 4.476563 10 10 10h39zm0 0"/></g></svg>