<svg height="462pt" viewBox="-81 0 461 462" width="462pt" xmlns="http://www.w3.org/2000/svg"><g fill="#00efd1"><path d="m299.359375 382.769531v39.230469c-.066406 22.0625-17.9375 39.933594-40 40h-218.859375c-22.0625-.066406-39.933594-17.9375-40-40v-39.230469zm0 0"/><path d="m299.359375 181.398438v12.179687h-298.859375v-12.179687c.011719-16.046876 4.777344-31.730469 13.699219-45.070313 8.746093-13.210937 21.285156-23.46875 35.972656-29.417969h199.519531c14.785156 5.867188 27.410156 16.144532 36.160156 29.429688 8.828126 13.367187 13.527344 29.039062 13.507813 45.058594zm0 0"/><path d="m50.171875 69.660156h-9.941406v-59.660156c0-5.523438 4.476562-10 10-10h199.398437c5.523438 0 10 4.476562 10 10v59.660156zm0 0"/></g><path d="m218.929688 269v40h-49v49h-40v-49h-49v-40h49v-49h40v49zm0 0" fill="#fedb41"/><path d="m298.929688 383v-189h-298v189zm-80-74h-49v49h-40v-49h-49v-40h49v-49h40v49h49zm0 0" fill="#00acea"/><path d="m49.929688 70h200v37h-200zm0 0" fill="#00acea"/></svg>