<svg width="512" height="512" viewBox="0 0 512 512" fill="none" xmlns="http://www.w3.org/2000/svg">
<path d="M413.535 205.14V236.344L401.025 339.493L413.535 442.648V488.471C413.535 501.461 402.996 512 389.995 512H122.54C109.539 512 99 501.461 99 488.471V442.648L113.057 339.493L99 236.344V205.14C99 196.435 103.811 188.431 111.506 184.351L149.932 163.974C157.628 159.895 162.439 151.89 162.439 143.185V58.7617H350.096V143.185C350.096 151.89 354.907 159.895 362.603 163.974L401.029 184.351C408.724 188.431 413.535 196.435 413.535 205.14V205.14Z" fill="#FA1203" fill-opacity="0.5"/>
<path d="M401.03 184.351L362.604 163.974C354.908 159.895 350.098 151.89 350.098 143.185V58.7617H325.07V143.185C325.07 151.89 329.881 159.895 337.577 163.974L376.002 184.351C383.698 188.431 388.509 196.435 388.509 205.14V488.471C388.509 501.461 377.97 512 364.969 512H389.996C402.997 512 413.536 501.461 413.536 488.471V442.648L403.308 348.829L413.536 236.344V205.14C413.536 196.435 408.725 188.431 401.03 184.351V184.351Z" fill="#FA1203" fill-opacity="0.5"/>
<path d="M366.252 11.6101V69.8566C366.252 76.2746 361.06 81.4667 354.652 81.4667H157.877C151.469 81.4667 146.277 76.2746 146.277 69.8566V11.6101C146.277 5.20241 151.469 0 157.877 0H354.652C361.06 0 366.252 5.20241 366.252 11.6101V11.6101Z" fill="#7A8C98"/>
<path d="M354.652 0H332.715C339.125 0 344.321 5.19623 344.321 11.606V69.8597C344.321 76.2695 339.125 81.4657 332.715 81.4657H354.652C361.061 81.4657 366.258 76.2695 366.258 69.8597V11.606C366.258 5.19623 361.061 0 354.652 0V0Z" fill="#6A808C" fill-opacity="0.8"/>
<path d="M99.0039 236.344H413.539V442.648H99.0039V236.344Z" fill="#EAF6FF" fill-opacity="0.7"/>
<path d="M388.512 236.344H413.539V442.648H388.512V236.344Z" fill="#EAF6FF" fill-opacity="0.7"/>
<path d="M371.262 339.496C371.262 384.824 344.982 424.012 306.834 442.648H206.185C168.038 424.012 141.758 384.824 141.758 339.496C141.758 294.168 168.038 254.98 206.185 236.344H306.834C344.982 254.98 371.262 294.168 371.262 339.496Z" fill="#FFC700"/>
<path d="M306.832 236.344H281.805C319.952 254.98 346.232 294.168 346.232 339.496C346.232 384.824 319.952 424.012 281.805 442.648H306.832C344.979 424.012 371.259 384.824 371.259 339.496C371.259 294.168 344.979 254.98 306.832 236.344V236.344Z" fill="#FFC700"/>
<path d="M175.422 0H190.875V81.4667H175.422V0Z" fill="#6A808C" fill-opacity="0.8"/>
<path d="M212.098 0H227.55V81.4667H212.098V0Z" fill="#6A808C" fill-opacity="0.8"/>
<path d="M248.781 0H264.234V81.4667H248.781V0Z" fill="#6A808C" fill-opacity="0.8"/>
<path d="M285.457 0H300.91V81.4667H285.457V0Z" fill="#6A808C" fill-opacity="0.8"/>
<path d="M322.141 0H337.593V81.4667H322.141V0Z" fill="#6A808C" fill-opacity="0.8"/>
<path d="M300.774 411.613H226.312L209.588 458H185.418L253.289 280.266H273.797L341.79 458H317.742L300.774 411.613ZM233.392 392.326H293.816L263.543 309.196L233.392 392.326Z" fill="#FB0101"/>
<path d="M415.996 205.939V236.96L403.349 339.505L415.996 442.055V487.609C415.996 500.524 405.341 511.001 392.197 511.001H121.799C108.655 511.001 98 500.524 98 487.609V442.055L112.211 339.505L98 236.96V205.939C98 197.285 102.864 189.327 110.644 185.271L149.493 165.014C157.273 160.958 162.137 153.001 162.137 144.347V60.418H351.859V144.347C351.859 153.001 356.723 160.958 364.503 165.014L403.352 185.271C411.132 189.327 415.996 197.285 415.996 205.939Z" fill="#B50404"/>
<path d="M403.354 185.271L364.505 165.014C356.725 160.958 351.861 153.001 351.861 144.347V60.418H326.559V144.347C326.559 153.001 331.422 160.958 339.203 165.014L378.051 185.271C385.831 189.327 390.695 197.285 390.695 205.939V487.609C390.695 500.524 380.04 511.001 366.896 511.001H392.199C405.343 511.001 415.998 500.524 415.998 487.609V442.055L405.658 348.785L415.998 236.96V205.939C415.998 197.285 411.134 189.327 403.354 185.271V185.271Z" fill="#B50404"/>
<path d="M368.196 13.5421V71.4473C368.196 77.8277 362.946 82.9894 356.468 82.9894H157.528C151.05 82.9894 145.801 77.8277 145.801 71.4473V13.5421C145.801 7.17193 151.05 2 157.528 2H356.468C362.946 2 368.196 7.17193 368.196 13.5421V13.5421Z" fill="#7A8C98"/>
<path d="M356.463 2H334.285C340.765 2 346.019 7.16579 346.019 13.538V71.4503C346.019 77.8226 340.765 82.9883 334.285 82.9883H356.463C362.943 82.9883 368.197 77.8226 368.197 71.4503V13.538C368.197 7.16579 362.943 2 356.463 2V2Z" fill="#6A808C"/>
<path d="M98.0039 236.959H416V442.054H98.0039V236.959Z" fill="#EAF6FF"/>
<path d="M390.695 236.959H415.998V442.054H390.695V236.959Z" fill="#EAF6FF"/>
<path d="M175.266 2H190.888V82.9894H175.266V2Z" fill="#6A808C"/>
<path d="M212.34 2H227.963V82.9894H212.34V2Z" fill="#6A808C"/>
<path d="M249.43 2H265.052V82.9894H249.43V2Z" fill="#6A808C"/>
<path d="M286.512 2H302.134V82.9894H286.512V2Z" fill="#6A808C"/>
<path d="M322.426 2H338.049V82.9894H322.426V2Z" fill="#6A808C"/>
<path d="M264.5 238C202.422 238 152 283.94 152 340.5C152 397.06 202.422 443 264.5 443C326.578 443 377 397.06 377 340.5C377 283.94 326.578 238 264.5 238ZM264.5 434.108C207.843 434.108 161.759 392.12 161.759 340.5C161.759 288.88 207.843 246.892 264.5 246.892C321.157 246.892 367.241 288.88 367.241 340.5C367.241 392.12 321.157 434.108 264.5 434.108Z" fill="#FF0000"/>
<path d="M323.054 318.271H288.898V287.151C288.898 284.681 286.729 282.705 284.018 282.705H244.982C242.271 282.705 240.103 284.681 240.103 287.151V318.271H205.946C203.235 318.271 201.066 320.247 201.066 322.717V358.283C201.066 360.753 203.235 362.729 205.946 362.729H240.103V393.85C240.103 396.32 242.271 398.295 244.982 398.295H284.018C286.729 398.295 288.898 396.32 288.898 393.85V362.729H323.054C325.765 362.729 327.934 360.753 327.934 358.283V322.717C327.663 320.247 325.494 318.271 323.054 318.271ZM318.446 353.838H318.175H284.018C281.307 353.838 279.139 355.814 279.139 358.283V389.404H249.862V358.283C249.862 355.814 247.693 353.838 244.982 353.838H210.825V327.163H244.982C247.693 327.163 249.862 325.187 249.862 322.717V291.597H279.41V322.717C279.41 325.187 281.578 327.163 284.289 327.163H318.446V353.838Z" fill="#FF0000"/>
<rect x="248.914" y="291.102" width="33.2078" height="100.648" fill="#FF0000"/>
<rect width="31.4916" height="110.465" transform="matrix(0.0158386 0.999875 -0.999914 0.0131485 320.738 324.445)" fill="#FF0000"/>
</svg>
