<svg width="512" height="512" viewBox="0 0 512 512" fill="none" xmlns="http://www.w3.org/2000/svg">
<path d="M407.996 203.939V234.96L395.349 337.505L407.996 440.055V485.609C407.996 498.524 397.341 509.001 384.197 509.001H113.799C100.655 509.001 90 498.524 90 485.609V440.055L104.211 337.505L90 234.96V203.939C90 195.285 94.8639 187.327 102.644 183.271L141.493 163.014C149.273 158.958 154.137 151.001 154.137 142.347V58.418H343.859V142.347C343.859 151.001 348.723 158.958 356.503 163.014L395.352 183.271C403.132 187.327 407.996 195.285 407.996 203.939Z" fill="#0B73D3"/>
<path d="M395.354 183.271L356.505 163.014C348.725 158.958 343.861 151.001 343.861 142.347V58.418H318.559V142.347C318.559 151.001 323.422 158.958 331.203 163.014L370.051 183.271C377.831 187.327 382.695 195.285 382.695 203.939V485.609C382.695 498.524 372.04 509.001 358.896 509.001H384.199C397.343 509.001 407.998 498.524 407.998 485.609V440.055L397.658 346.785L407.998 234.96V203.939C407.998 195.285 403.134 187.327 395.354 183.271V183.271Z" fill="#1352F4"/>
<path d="M360.196 11.5421V69.4473C360.196 75.8277 354.946 80.9894 348.468 80.9894H149.528C143.05 80.9894 137.801 75.8277 137.801 69.4473V11.5421C137.801 5.17193 143.05 0 149.528 0H348.468C354.946 0 360.196 5.17193 360.196 11.5421V11.5421Z" fill="#7A8C98"/>
<path d="M348.463 0H326.285C332.765 0 338.019 5.16579 338.019 11.538V69.4503C338.019 75.8226 332.765 80.9883 326.285 80.9883H348.463C354.943 80.9883 360.197 75.8226 360.197 69.4503V11.538C360.197 5.16579 354.943 0 348.463 0V0Z" fill="#6A808C"/>
<path d="M90 235H408V440H90V235Z" fill="#EAF6FF"/>
<path d="M382.695 234.959H407.998V440.054H382.695V234.959Z" fill="#EAF6FF"/>
<path d="M187.175 362H180.815L165.635 341.54L161.255 345.38V362H155.855V319.16H161.255V340.28C162.455 338.92 163.675 337.56 164.915 336.2C166.155 334.84 167.395 333.48 168.635 332.12L180.215 319.16H186.515L169.535 337.82L187.175 362ZM204.704 329.24C207.464 329.24 209.824 329.84 211.784 331.04C213.784 332.24 215.304 333.94 216.344 336.14C217.424 338.3 217.964 340.84 217.964 343.76V346.94H195.944C196.024 350.58 196.944 353.36 198.704 355.28C200.504 357.16 203.004 358.1 206.204 358.1C208.244 358.1 210.044 357.92 211.604 357.56C213.204 357.16 214.844 356.6 216.524 355.88V360.5C214.884 361.22 213.264 361.74 211.664 362.06C210.064 362.42 208.164 362.6 205.964 362.6C202.924 362.6 200.224 361.98 197.864 360.74C195.544 359.5 193.724 357.66 192.404 355.22C191.124 352.74 190.484 349.72 190.484 346.16C190.484 342.64 191.064 339.62 192.224 337.1C193.424 334.58 195.084 332.64 197.204 331.28C199.364 329.92 201.864 329.24 204.704 329.24ZM204.644 333.56C202.124 333.56 200.124 334.38 198.644 336.02C197.204 337.62 196.344 339.86 196.064 342.74H212.444C212.404 340.02 211.764 337.82 210.524 336.14C209.284 334.42 207.324 333.56 204.644 333.56ZM236.891 358.28C237.691 358.28 238.511 358.22 239.351 358.1C240.191 357.94 240.871 357.78 241.391 357.62V361.64C240.831 361.92 240.031 362.14 238.991 362.3C237.951 362.5 236.951 362.6 235.991 362.6C234.311 362.6 232.751 362.32 231.311 361.76C229.911 361.16 228.771 360.14 227.891 358.7C227.011 357.26 226.571 355.24 226.571 352.64V333.92H222.011V331.4L226.631 329.3L228.731 322.46H231.851V329.84H241.151V333.92H231.851V352.52C231.851 354.48 232.311 355.94 233.231 356.9C234.191 357.82 235.411 358.28 236.891 358.28ZM275.79 345.86C275.79 351.18 274.43 355.3 271.71 358.22C269.03 361.14 265.39 362.6 260.79 362.6C257.95 362.6 255.41 361.96 253.17 360.68C250.97 359.36 249.23 357.46 247.95 354.98C246.67 352.46 246.03 349.42 246.03 345.86C246.03 340.54 247.37 336.44 250.05 333.56C252.73 330.68 256.37 329.24 260.97 329.24C263.89 329.24 266.45 329.9 268.65 331.22C270.89 332.5 272.63 334.38 273.87 336.86C275.15 339.3 275.79 342.3 275.79 345.86ZM251.49 345.86C251.49 349.66 252.23 352.68 253.71 354.92C255.23 357.12 257.63 358.22 260.91 358.22C264.15 358.22 266.53 357.12 268.05 354.92C269.57 352.68 270.33 349.66 270.33 345.86C270.33 342.06 269.57 339.08 268.05 336.92C266.53 334.76 264.13 333.68 260.85 333.68C257.57 333.68 255.19 334.76 253.71 336.92C252.23 339.08 251.49 342.06 251.49 345.86ZM299.639 329.24C303.479 329.24 306.379 330.18 308.339 332.06C310.299 333.9 311.279 336.9 311.279 341.06V362H306.059V341.42C306.059 336.26 303.659 333.68 298.859 333.68C295.299 333.68 292.839 334.68 291.479 336.68C290.119 338.68 289.439 341.56 289.439 345.32V362H284.159V329.84H288.419L289.199 334.22H289.499C290.539 332.54 291.979 331.3 293.819 330.5C295.659 329.66 297.599 329.24 299.639 329.24ZM333.428 329.3C337.348 329.3 340.248 330.16 342.128 331.88C344.008 333.6 344.948 336.34 344.948 340.1V362H341.108L340.088 357.44H339.848C338.448 359.2 336.968 360.5 335.408 361.34C333.888 362.18 331.768 362.6 329.048 362.6C326.128 362.6 323.708 361.84 321.788 360.32C319.868 358.76 318.908 356.34 318.908 353.06C318.908 349.86 320.168 347.4 322.688 345.68C325.208 343.92 329.088 342.96 334.328 342.8L339.788 342.62V340.7C339.788 338.02 339.208 336.16 338.048 335.12C336.888 334.08 335.248 333.56 333.128 333.56C331.448 333.56 329.848 333.82 328.328 334.34C326.808 334.82 325.388 335.38 324.068 336.02L322.448 332.06C323.848 331.3 325.508 330.66 327.428 330.14C329.348 329.58 331.348 329.3 333.428 329.3ZM334.988 346.46C330.988 346.62 328.208 347.26 326.648 348.38C325.128 349.5 324.368 351.08 324.368 353.12C324.368 354.92 324.908 356.24 325.988 357.08C327.108 357.92 328.528 358.34 330.248 358.34C332.968 358.34 335.228 357.6 337.028 356.12C338.828 354.6 339.728 352.28 339.728 349.16V346.28L334.988 346.46ZM360.161 362H354.881V316.4H360.161V362Z" fill="#FB0101"/>
<path d="M167.266 0H182.888V80.9894H167.266V0Z" fill="#6A808C"/>
<path d="M204.34 0H219.963V80.9894H204.34V0Z" fill="#6A808C"/>
<path d="M241.43 0H257.052V80.9894H241.43V0Z" fill="#6A808C"/>
<path d="M278.512 0H294.134V80.9894H278.512V0Z" fill="#6A808C"/>
<path d="M314.426 0H330.049V80.9894H314.426V0Z" fill="#6A808C"/>
</svg>
