<svg width="512" height="512" viewBox="0 0 512 512" fill="none" xmlns="http://www.w3.org/2000/svg">
<g clip-path="url(#clip0)">
<path d="M431.996 209.939V240.96L419.349 343.505L431.996 446.055V491.609C431.996 504.524 421.341 515.001 408.197 515.001H137.799C124.655 515.001 114 504.524 114 491.609V446.055L128.211 343.505L114 240.96V209.939C114 201.285 118.864 193.327 126.644 189.271L165.493 169.014C173.273 164.958 178.137 157.001 178.137 148.347V64.418H367.859V148.347C367.859 157.001 372.723 164.958 380.503 169.014L419.352 189.271C427.132 193.327 431.996 201.285 431.996 209.939Z" fill="#0B73D3"/>
<path d="M419.354 189.271L380.505 169.014C372.725 164.958 367.861 157.001 367.861 148.347V64.418H342.559V148.347C342.559 157.001 347.422 164.958 355.203 169.014L394.051 189.271C401.831 193.327 406.695 201.285 406.695 209.939V491.609C406.695 504.524 396.04 515.001 382.896 515.001H408.199C421.343 515.001 431.998 504.524 431.998 491.609V446.055L421.658 352.785L431.998 240.96V209.939C431.998 201.285 427.134 193.327 419.354 189.271V189.271Z" fill="#1352F4"/>
<path d="M384.196 17.5421V75.4473C384.196 81.8277 378.946 86.9894 372.468 86.9894H173.528C167.05 86.9894 161.801 81.8277 161.801 75.4473V17.5421C161.801 11.1719 167.05 6 173.528 6H372.468C378.946 6 384.196 11.1719 384.196 17.5421V17.5421Z" fill="#7A8C98"/>
<path d="M372.463 6H350.285C356.765 6 362.019 11.1658 362.019 17.538V75.4503C362.019 81.8226 356.765 86.9883 350.285 86.9883H372.463C378.943 86.9883 384.197 81.8226 384.197 75.4503V17.538C384.197 11.1658 378.943 6 372.463 6V6Z" fill="#6A808C"/>
<path d="M114 241H432V446H114V241Z" fill="#EAF6FF"/>
<path d="M406.695 240.959H431.998V446.054H406.695V240.959Z" fill="#EAF6FF"/>
<path d="M191.266 6H206.888V86.9894H191.266V6Z" fill="#6A808C"/>
<path d="M228.34 6H243.963V86.9894H228.34V6Z" fill="#6A808C"/>
<path d="M265.43 6H281.052V86.9894H265.43V6Z" fill="#6A808C"/>
<path d="M302.512 6H318.134V86.9894H302.512V6Z" fill="#6A808C"/>
<path d="M338.426 6H354.049V86.9894H338.426V6Z" fill="#6A808C"/>
<path d="M272.5 242C210.422 242 160 287.94 160 344.5C160 401.06 210.422 447 272.5 447C334.578 447 385 401.06 385 344.5C385 287.94 334.578 242 272.5 242ZM272.5 438.108C215.843 438.108 169.759 396.12 169.759 344.5C169.759 292.88 215.843 250.892 272.5 250.892C329.157 250.892 375.241 292.88 375.241 344.5C375.241 396.12 329.157 438.108 272.5 438.108Z" fill="#FF0000"/>
<path d="M331.054 322.271H296.898V291.151C296.898 288.681 294.729 286.705 292.018 286.705H252.982C250.271 286.705 248.103 288.681 248.103 291.151V322.271H213.946C211.235 322.271 209.066 324.247 209.066 326.717V362.283C209.066 364.753 211.235 366.729 213.946 366.729H248.103V397.85C248.103 400.32 250.271 402.295 252.982 402.295H292.018C294.729 402.295 296.898 400.32 296.898 397.85V366.729H331.054C333.765 366.729 335.934 364.753 335.934 362.283V326.717C335.663 324.247 333.494 322.271 331.054 322.271ZM326.446 357.838H326.175H292.018C289.307 357.838 287.139 359.814 287.139 362.283V393.404H257.862V362.283C257.862 359.814 255.693 357.838 252.982 357.838H218.825V331.163H252.982C255.693 331.163 257.862 329.187 257.862 326.717V295.597H287.41V326.717C287.41 329.187 289.578 331.163 292.289 331.163H326.446V357.838Z" fill="#FF0000"/>
<rect x="256.914" y="295.102" width="33.2078" height="100.648" fill="#FF0000"/>
<rect width="31.4916" height="110.465" transform="matrix(0.0158386 0.999875 -0.999914 0.0131485 328.738 328.445)" fill="#FF0000"/>
</g>
<defs>
<clipPath id="clip0">
<rect width="512" height="512" fill="white"/>
</clipPath>
</defs>
</svg>
