<?xml version="1.0"?>
<svg xmlns="http://www.w3.org/2000/svg" viewBox="0 0 64 64" width="512" height="512"><g id="Medicine-3" data-name="Medicine"><polygon points="38 37 38 41 34 41 34 45 30 45 30 41 26 41 26 37 30 37 30 33 34 33 34 37 38 37" style="fill:#bddbff"/><path d="M50,21.92V57a4,4,0,0,1-4,4H18a4,4,0,0,1-4-4V21.92a6,6,0,0,1,4.82-5.88L24,15V11H40v4l5.18,1.04A6,6,0,0,1,50,21.92ZM46,51V27a2.006,2.006,0,0,0-2-2H20a2.006,2.006,0,0,0-2,2V51a2.006,2.006,0,0,0,2,2H44A2.006,2.006,0,0,0,46,51Z" style="fill:#bddbff"/><path d="M37,3h4a1,1,0,0,1,1,1v6a1,1,0,0,1-1,1H23a1,1,0,0,1-1-1V4a1,1,0,0,1,1-1H37Z" style="fill:#bddbff"/><path d="M35,36V33a1,1,0,0,0-1-1H30a1,1,0,0,0-1,1v3H26a1,1,0,0,0-1,1v4a1,1,0,0,0,1,1h3v3a1,1,0,0,0,1,1h4a1,1,0,0,0,1-1V42h3a1,1,0,0,0,1-1V37a1,1,0,0,0-1-1Zm2,4H34a1,1,0,0,0-1,1v3H31V41a1,1,0,0,0-1-1H27V38h3a1,1,0,0,0,1-1V34h2v3a1,1,0,0,0,1,1h3Z" style="fill:#3d9ae2"/><path d="M32,28A11,11,0,1,0,43,39,11.013,11.013,0,0,0,32,28Zm0,20a9,9,0,1,1,9-9A9.01,9.01,0,0,1,32,48Z" style="fill:#3d9ae2"/><path d="M45.373,15.055,41,14.18V12a2,2,0,0,0,2-2V4a2,2,0,0,0-2-2H23a2,2,0,0,0-2,2v6a2,2,0,0,0,2,2v2.18l-4.373.875A7.018,7.018,0,0,0,13,21.919V57a5.006,5.006,0,0,0,5,5H46a5.006,5.006,0,0,0,5-5V21.919A7.018,7.018,0,0,0,45.373,15.055ZM23,4h3V6h2V4h3V6h2V4h3V6h2V4h3v6H23ZM49,57a3,3,0,0,1-3,3H18a3,3,0,0,1-3-3V21.919a5.013,5.013,0,0,1,4.02-4.9L24.2,15.98A1,1,0,0,0,25,15V12H39v3a1,1,0,0,0,.8.98l5.176,1.036a5.013,5.013,0,0,1,4.02,4.9Z" style="fill:#3d9ae2"/><path d="M44,24H20a3,3,0,0,0-3,3V51a3,3,0,0,0,3,3H44a3,3,0,0,0,3-3V27A3,3,0,0,0,44,24Zm1,27a1,1,0,0,1-1,1H20a1,1,0,0,1-1-1V27a1,1,0,0,1,1-1H44a1,1,0,0,1,1,1Z" style="fill:#3d9ae2"/></g></svg>
