<svg width="512" height="512" viewBox="0 0 512 512" fill="none" xmlns="http://www.w3.org/2000/svg">
<path d="M413.535 205.14V236.344L401.025 339.493L413.535 442.648V488.471C413.535 501.461 402.996 512 389.995 512H122.54C109.539 512 99 501.461 99 488.471V442.648L113.057 339.493L99 236.344V205.14C99 196.435 103.811 188.431 111.506 184.351L149.932 163.974C157.628 159.895 162.439 151.89 162.439 143.185V58.7617H350.096V143.185C350.096 151.89 354.907 159.895 362.603 163.974L401.029 184.351C408.724 188.431 413.535 196.435 413.535 205.14V205.14Z" fill="#FA1203" fill-opacity="0.5"/>
<path d="M401.03 184.351L362.604 163.974C354.908 159.895 350.098 151.89 350.098 143.185V58.7617H325.07V143.185C325.07 151.89 329.881 159.895 337.577 163.974L376.002 184.351C383.698 188.431 388.509 196.435 388.509 205.14V488.471C388.509 501.461 377.97 512 364.969 512H389.996C402.997 512 413.536 501.461 413.536 488.471V442.648L403.308 348.829L413.536 236.344V205.14C413.536 196.435 408.725 188.431 401.03 184.351V184.351Z" fill="#FA1203" fill-opacity="0.5"/>
<path d="M366.252 11.6101V69.8566C366.252 76.2746 361.06 81.4667 354.652 81.4667H157.877C151.469 81.4667 146.277 76.2746 146.277 69.8566V11.6101C146.277 5.20241 151.469 0 157.877 0H354.652C361.06 0 366.252 5.20241 366.252 11.6101V11.6101Z" fill="#7A8C98"/>
<path d="M354.652 0H332.715C339.125 0 344.321 5.19623 344.321 11.606V69.8597C344.321 76.2695 339.125 81.4657 332.715 81.4657H354.652C361.061 81.4657 366.258 76.2695 366.258 69.8597V11.606C366.258 5.19623 361.061 0 354.652 0V0Z" fill="#6A808C" fill-opacity="0.8"/>
<path d="M99.0039 236.344H413.539V442.648H99.0039V236.344Z" fill="#EAF6FF" fill-opacity="0.7"/>
<path d="M388.512 236.344H413.539V442.648H388.512V236.344Z" fill="#EAF6FF" fill-opacity="0.7"/>
<path d="M371.262 339.496C371.262 384.824 344.982 424.012 306.834 442.648H206.185C168.038 424.012 141.758 384.824 141.758 339.496C141.758 294.168 168.038 254.98 206.185 236.344H306.834C344.982 254.98 371.262 294.168 371.262 339.496Z" fill="#FFC700"/>
<path d="M306.832 236.344H281.805C319.952 254.98 346.232 294.168 346.232 339.496C346.232 384.824 319.952 424.012 281.805 442.648H306.832C344.979 424.012 371.259 384.824 371.259 339.496C371.259 294.168 344.979 254.98 306.832 236.344V236.344Z" fill="#FFC700"/>
<path d="M175.422 0H190.875V81.4667H175.422V0Z" fill="#6A808C" fill-opacity="0.8"/>
<path d="M212.098 0H227.55V81.4667H212.098V0Z" fill="#6A808C" fill-opacity="0.8"/>
<path d="M248.781 0H264.234V81.4667H248.781V0Z" fill="#6A808C" fill-opacity="0.8"/>
<path d="M285.457 0H300.91V81.4667H285.457V0Z" fill="#6A808C" fill-opacity="0.8"/>
<path d="M322.141 0H337.593V81.4667H322.141V0Z" fill="#6A808C" fill-opacity="0.8"/>
<path d="M293.505 368.613H219.042L202.318 415H178.148L246.02 237.266H266.527L334.521 415H310.473L293.505 368.613ZM226.122 349.326H286.547L256.273 266.196L226.122 349.326Z" fill="#FB0101"/>
<path d="M415.996 206.521V237.542L403.349 340.087L415.996 442.637V488.191C415.996 501.106 405.341 511.583 392.197 511.583H121.799C108.655 511.583 98 501.106 98 488.191V442.637L112.211 340.087L98 237.542V206.521C98 197.867 102.864 189.909 110.644 185.853L149.493 165.596C157.273 161.54 162.137 153.583 162.137 144.929V61H351.859V144.929C351.859 153.583 356.723 161.54 364.503 165.596L403.352 185.853C411.132 189.909 415.996 197.867 415.996 206.521Z" fill="#FFB800"/>
<path d="M403.354 183.271L364.505 163.014C356.725 158.958 351.861 151.001 351.861 142.347V58.418H326.559V142.347C326.559 151.001 331.422 158.958 339.203 163.014L378.051 183.271C385.831 187.327 390.695 195.285 390.695 203.939V485.609C390.695 498.524 380.04 509.001 366.896 509.001H392.199C405.343 509.001 415.998 498.524 415.998 485.609V440.055L405.658 346.785L415.998 234.96V203.939C415.998 195.285 411.134 187.327 403.354 183.271V183.271Z" fill="#FFB800"/>
<path d="M368.196 11.5421V69.4473C368.196 75.8277 362.946 80.9894 356.468 80.9894H157.528C151.05 80.9894 145.801 75.8277 145.801 69.4473V11.5421C145.801 5.17193 151.05 0 157.528 0H356.468C362.946 0 368.196 5.17193 368.196 11.5421V11.5421Z" fill="#7A8C98"/>
<path d="M356.463 0H334.285C340.765 0 346.019 5.16579 346.019 11.538V69.4503C346.019 75.8226 340.765 80.9883 334.285 80.9883H356.463C362.943 80.9883 368.197 75.8226 368.197 69.4503V11.538C368.197 5.16579 362.943 0 356.463 0V0Z" fill="#6A808C"/>
<path d="M98.0039 234.959H416V440.054H98.0039V234.959Z" fill="#EAF6FF"/>
<path d="M390.695 234.959H415.998V440.054H390.695V234.959Z" fill="#EAF6FF"/>
<path d="M175.266 0H190.888V80.9894H175.266V0Z" fill="#6A808C"/>
<path d="M212.34 0H227.963V80.9894H212.34V0Z" fill="#6A808C"/>
<path d="M249.43 0H265.052V80.9894H249.43V0Z" fill="#6A808C"/>
<path d="M286.512 0H302.134V80.9894H286.512V0Z" fill="#6A808C"/>
<path d="M322.426 0H338.049V80.9894H322.426V0Z" fill="#6A808C"/>
<path d="M264.5 235C202.422 235 152 280.94 152 337.5C152 394.06 202.422 440 264.5 440C326.578 440 377 394.06 377 337.5C377 280.94 326.578 235 264.5 235ZM264.5 431.108C207.843 431.108 161.759 389.12 161.759 337.5C161.759 285.88 207.843 243.892 264.5 243.892C321.157 243.892 367.241 285.88 367.241 337.5C367.241 389.12 321.157 431.108 264.5 431.108Z" fill="#FF0000"/>
<path d="M323.054 315.271H288.898V284.151C288.898 281.681 286.729 279.705 284.018 279.705H244.982C242.271 279.705 240.103 281.681 240.103 284.151V315.271H205.946C203.235 315.271 201.066 317.247 201.066 319.717V355.283C201.066 357.753 203.235 359.729 205.946 359.729H240.103V390.85C240.103 393.32 242.271 395.295 244.982 395.295H284.018C286.729 395.295 288.898 393.32 288.898 390.85V359.729H323.054C325.765 359.729 327.934 357.753 327.934 355.283V319.717C327.663 317.247 325.494 315.271 323.054 315.271ZM318.446 350.838H318.175H284.018C281.307 350.838 279.139 352.814 279.139 355.283V386.404H249.862V355.283C249.862 352.814 247.693 350.838 244.982 350.838H210.825V324.163H244.982C247.693 324.163 249.862 322.187 249.862 319.717V288.597H279.41V319.717C279.41 322.187 281.578 324.163 284.289 324.163H318.446V350.838Z" fill="#FF0000"/>
<rect x="248.914" y="288.102" width="33.2078" height="100.648" fill="#FF0000"/>
<rect width="31.4916" height="110.465" transform="matrix(0.0158386 0.999875 -0.999914 0.0131485 320.738 321.445)" fill="#FF0000"/>
</svg>
