<svg height="512pt" viewBox="0 0 512 512" width="512pt" xmlns="http://www.w3.org/2000/svg"><path d="m432.933594 84.714844s27.1875 20.917968 64.824218 20.917968c0 0-27.183593 50.183594-95.148437 25.09375 0 0 21.964844 28.230469 44.964844 35.546876 0 0-58.035157 40.777343-93.054688-8.363282 0 0-30.324219 46-80.511719 6.269532h-36.015624c-50.1875 39.730468-80.511719-6.269532-80.511719-6.269532-35.019531 49.140625-93.054688 8.363282-93.054688 8.363282 23-7.316407 44.964844-35.546876 44.964844-35.546876-67.964844 25.089844-95.148437-25.09375-95.148437-25.09375 37.636718 0 64.824218-20.917968 64.824218-20.917968-74.242187 6.28125-79.066406-52.277344-79.066406-52.277344 23.492188 6.53125 53.679688 6.488281 85.886719 3.066406 14.199219-1.496094 28.789062-3.664062 43.363281-6.203125 65.871094-11.5 70.054688 83.648438 108.742188 83.648438h36.015624c38.6875 0 42.859376-95.148438 108.742188-83.648438 47.652344 8.316407 95.398438 12.542969 129.25 3.136719 0 0-4.824219 58.558594-79.066406 52.277344zm0 0" fill="#fcb52f"/><path d="m252.976562 112.949219-13.058593 35.628906c-103.417969 0-60.222657-76.710937-122.691407-81.722656-34.101562-2.742188-31.339843-31.339844-31.339843-31.339844v-.011719c14.199219-1.496094 28.789062-3.664062 43.363281-6.203125 65.871094-11.5 70.054688 83.648438 108.742188 83.648438zm0 0" fill="#f99830"/><path d="m259.023438 112.949219 13.058593 35.628906c103.417969 0 60.222657-76.710937 122.691407-81.722656 34.101562-2.742188 31.339843-31.339844 31.339843-31.339844v-.011719c-14.199219-1.496094-28.789062-3.664062-43.363281-6.203125-65.871094-11.5-70.054688 83.648438-108.742188 83.648438zm0 0" fill="#f99830"/><path d="m274.007812 42.273438v451.949218c0 6.71875-3.890624 12.535156-9.554687 15.308594-2.257813 1.109375-4.800781 1.726562-7.492187 1.726562-9.414063 0-17.042969-7.628906-17.042969-17.035156v-451.949218zm0 0" fill="#f99830"/><path d="m274.007812 42.273438v451.949218c0 6.71875-3.890624 12.535156-9.554687 15.308594-5.648437-2.785156-9.542969-8.589844-9.542969-15.308594v-451.949218zm0 0" fill="#fcb52f"/><path d="m372.402344 358.167969c-4.972656 18.722656-33.183594 45.824219-95.589844 61.625-52.832031 13.371093-72.261719 35.804687-66.917969 57.238281.964844 3.878906 2.753907 7.730469 5.296875 11.488281 0 0-32.074218-18.039062-24.882812-52.140625 10.660156-50.554687 141.011718-48.585937 141.011718-92.429687 0-52.925781-218.308593-23.699219-218.308593-131.53125 0-83.898438 73.382812-85.636719 90.710937-68.78125 1.515625 1.464843 2.605469 3.078125 3.179688 4.792969 7.105468 21.335937-3.558594 54.507812-42.660156 59.246093 0 0-26.464844 37.527344 101.511718 58.863281 95.566406 15.925782 116.910156 52.925782 106.648438 91.628907zm0 0" fill="#79a879"/><path d="m182.59375 343.949219c0 43.84375 130.351562 41.875 141.015625 92.429687 7.1875 34.101563-24.886719 52.140625-24.886719 52.140625 16.585938-24.484375.785156-52.925781-61.621094-68.726562s-90.617187-42.902344-95.585937-61.625c-10.265625-38.703125 11.078125-75.703125 106.648437-91.628907 127.972657-21.335937 101.507813-58.863281 101.507813-58.863281-39.101563-4.738281-49.765625-37.910156-42.648437-59.246093 1.078124-3.222657 3.976562-6.097657 8.117187-8.328126 23.253906-12.566406 85.765625-5.117187 85.765625 72.316407 0 107.832031-218.3125 78.605469-218.3125 131.53125zm0 0" fill="#79a879"/><g fill="#5d895d"><path d="m298.722656 488.519531c16.585938-24.484375.785156-52.925781-61.621094-68.726562s-90.617187-42.902344-95.585937-61.625c-7.105469-26.796875.941406-52.777344 38.285156-71.519531 11.824219 4.28125 24.445313 7.796874 37.148438 10.882812-58.128907 18.125-55.992188 30.890625-55.992188 47.066406 0 20.445313 20.824219 43.9375 79.085938 60 58.253906 16.050782 94.46875 48.132813 58.679687 83.921875zm0 0"/><path d="m302.816406 274.75c-10.871094-3.148438-23.1875-5.898438-37.0625-8.210938-3.015625-.503906-5.945312-1.015624-8.792968-1.53125 117.941406-21.554687 92.710937-57.332031 92.710937-57.332031-39.101563-4.738281-49.765625-37.910156-42.648437-59.246093 1.078124-3.222657 3.976562-6.097657 8.117187-8.328126 0 18.363282 25.804687 51.085938 53.765625 56.535157 0 0 23.074219 49.035156-66.089844 78.113281zm0 0"/><path d="m209.445312 411.304688c7.335938 2.699218 15.320313 5.234374 23.996094 7.535156-3.382812 1.351562-6.332031 2.617187-8.738281 3.820312-24.632813 12.316406-24.296875 31.433594-14.808594 54.371094 1.550781 3.734375 3.339844 7.5625 5.296875 11.488281 0 0-32.074218-18.039062-24.882812-52.140625 2.15625-10.234375 9.226562-18.324218 19.125-25.074218zm0 0"/><path d="m283.613281 400.246094c-8.390625-3.609375-17.484375-6.855469-26.652343-9.972656 36.5625-12.390626 74.359374-22.71875 74.359374-46.324219 0-33.472657-87.332031-34.089844-151.519531-57.300781 0 0 0 0-.007812 0-37.296875-13.488282-66.78125-34.605469-66.78125-74.230469 0-83.898438 73.382812-85.636719 90.710937-68.78125-31.820312 2.511719-73.113281 15.226562-73.113281 64.261719 0 89.652343 227.382813 66.46875 221.765625 138.910156-2.433594 31.367187-33.519531 39.363281-68.761719 53.4375zm0 0"/></g><path d="m299.226562 42.273438c0 18.699218-12.136718 34.5625-28.976562 40.140624-4.171875 1.382813-8.640625 2.132813-13.289062 2.132813-23.34375 0-42.273438-18.925781-42.273438-42.273437 0-23.34375 18.929688-42.273438 42.273438-42.273438 4.648437 0 9.117187.753906 13.289062 2.132812 16.839844 5.578126 28.976562 21.441407 28.976562 40.140626zm0 0" fill="#f99830"/><path d="m299.226562 42.273438c0 18.699218-12.136718 34.5625-28.976562 40.140624-16.824219-5.578124-28.972656-21.441406-28.972656-40.140624 0-18.699219 12.148437-34.5625 28.972656-40.140626 16.839844 5.578126 28.976562 21.441407 28.976562 40.140626zm0 0" fill="#fcb52f"/><path d="m162.90625 173.8125c-3.210938 0-6.167969-2.039062-7.324219-5.027344-1.1875-3.085937-.265625-6.632812 2.222657-8.789062 2.566406-2.222656 6.433593-2.472656 9.289062-.664063 2.707031 1.710938 4.136719 5.015625 3.503906 8.160157-.726562 3.617187-3.988281 6.320312-7.691406 6.320312zm0 0" fill="#3b3d4d"/><path d="m351.015625 173.8125c-3.28125 0-6.285156-2.125-7.390625-5.210938-1.101562-3.074218-.121094-6.636718 2.40625-8.703124 2.585938-2.113282 6.355469-2.359376 9.175781-.566407 2.757813 1.75 4.191407 5.152344 3.457031 8.347657-.8125 3.53125-4 6.132812-7.648437 6.132812zm0 0" fill="#3b3d4d"/><path d="m284.015625 42.273438c0-7.058594-4.121094-12.78125-9.203125-12.78125s-9.203125 5.722656-9.203125 12.78125c0 7.0625 4.121094 12.785156 9.203125 12.785156s9.203125-5.722656 9.203125-12.785156zm0 0" fill="#fff"/></svg>