<?xml version="1.0" encoding="iso-8859-1"?>
<!-- Generator: Adobe Illustrator 19.0.0, SVG Export Plug-In . SVG Version: 6.00 Build 0)  -->
<svg version="1.1" id="Capa_1" xmlns="http://www.w3.org/2000/svg" xmlns:xlink="http://www.w3.org/1999/xlink" x="0px" y="0px"
	 viewBox="0 0 512 512" style="enable-background:new 0 0 512 512;" xml:space="preserve">
<path style="fill:#F3E8D6;" d="M362.213,124.106V98.764H149.785v25.343c0,18.58-15.062,33.641-33.641,33.641l0,0
	c-23.184,0-41.978,18.794-41.978,41.978v272.552c0,21.938,17.784,39.722,39.722,39.722h284.223
	c21.938,0,39.722-17.784,39.722-39.722V199.726c0-23.184-18.794-41.978-41.978-41.978l0,0
	C377.274,157.748,362.213,142.686,362.213,124.106z"/>
<path style="fill:#E5D8C6;" d="M395.854,157.748L395.854,157.748c-18.58,0-33.641-15.062-33.641-33.641V98.763h-50.316v25.343
	c0,18.58,15.062,33.641,33.642,33.641l0,0c23.184,0,41.978,18.794,41.978,41.978v272.552c0,21.938-17.784,39.722-39.722,39.722
	h50.316c21.938,0,39.722-17.784,39.722-39.722V199.726C437.832,176.542,419.038,157.748,395.854,157.748z"/>
<path style="fill:#B3B3B3;" d="M387.996,113.108H124.002c-8.451,0-15.302-6.851-15.302-15.302V15.302
	C108.7,6.851,115.551,0,124.002,0h263.994c8.451,0,15.302,6.851,15.302,15.302v82.505
	C403.298,106.257,396.447,113.108,387.996,113.108z"/>
<g>
	<path style="fill:#999999;" d="M387.996,0H352.77c0.127,0.794,0.211,1.602,0.211,2.431v82.505c0,8.451-6.85,15.302-15.301,15.302
		H108.912c1.167,7.292,7.469,12.87,15.09,12.87h263.994c8.451,0,15.301-6.851,15.301-15.301V15.302
		C403.298,6.851,396.447,0,387.996,0z"/>
	<path style="fill:#999999;" d="M152.878,19.48c-4.101,0-7.425,3.324-7.425,7.425v59.297c0,4.101,3.324,7.425,7.425,7.425
		s7.425-3.324,7.425-7.425V26.906C160.303,22.804,156.979,19.48,152.878,19.48z"/>
	<path style="fill:#999999;" d="M204.438,19.48c-4.101,0-7.425,3.324-7.425,7.425v59.297c0,4.101,3.324,7.425,7.425,7.425
		s7.425-3.324,7.425-7.425V26.906C211.863,22.804,208.54,19.48,204.438,19.48z"/>
	<path style="fill:#999999;" d="M255.999,19.48c-4.101,0-7.425,3.324-7.425,7.425v59.297c0,4.101,3.324,7.425,7.425,7.425
		c4.101,0,7.425-3.324,7.425-7.425V26.906C263.424,22.804,260.1,19.48,255.999,19.48z"/>
	<path style="fill:#999999;" d="M307.56,19.48c-4.101,0-7.425,3.324-7.425,7.425v59.297c0,4.101,3.324,7.425,7.425,7.425
		s7.425-3.324,7.425-7.425V26.906C314.985,22.804,311.661,19.48,307.56,19.48z"/>
	<path style="fill:#999999;" d="M359.12,19.48c-4.101,0-7.425,3.324-7.425,7.425v59.297c0,4.101,3.324,7.425,7.425,7.425
		s7.425-3.324,7.425-7.425V26.906C366.546,22.804,363.222,19.48,359.12,19.48z"/>
</g>
<path style="fill:#65DB57;" d="M378.182,443.151H133.816c-6.742,0-12.207-5.465-12.207-12.207V235.33
	c0-6.742,5.465-12.207,12.207-12.207h244.365c6.742,0,12.207,5.465,12.207,12.207v195.614
	C390.389,437.686,384.923,443.151,378.182,443.151z"/>
<path style="fill:#01C61B;" d="M378.181,223.123h-38.109v191.981c0,6.742-5.465,12.207-12.207,12.207H121.609v3.633
	c0,6.742,5.465,12.207,12.207,12.207h244.365c6.742,0,12.207-5.465,12.207-12.207V235.33
	C390.389,228.588,384.923,223.123,378.181,223.123z"/>
<path style="fill:#FFFFFF;" d="M234.652,405.111v-50.627h-50.627c-3.405,0-6.166-2.761-6.166-6.166v-30.362
	c0-3.405,2.761-6.166,6.166-6.166h50.627v-50.627c0-3.405,2.761-6.166,6.166-6.166h30.362c3.405,0,6.166,2.761,6.166,6.166v50.627
	h50.627c3.405,0,6.166,2.761,6.166,6.166v30.362c0,3.405-2.761,6.166-6.166,6.166h-50.627v50.627c0,3.405-2.761,6.166-6.166,6.166
	h-30.362C237.413,411.277,234.652,408.516,234.652,405.111z"/>
<g>
</g>
<g>
</g>
<g>
</g>
<g>
</g>
<g>
</g>
<g>
</g>
<g>
</g>
<g>
</g>
<g>
</g>
<g>
</g>
<g>
</g>
<g>
</g>
<g>
</g>
<g>
</g>
<g>
</g>
</svg>
