<svg width="512" height="512" viewBox="0 0 512 512" fill="none" xmlns="http://www.w3.org/2000/svg">
<g clip-path="url(#clip0)">
<path d="M407.996 203.939V234.96L395.349 337.505L407.996 440.055V485.609C407.996 498.524 397.341 509.001 384.197 509.001H113.799C100.655 509.001 90 498.524 90 485.609V440.055L104.211 337.505L90 234.96V203.939C90 195.285 94.8639 187.327 102.644 183.271L141.493 163.014C149.273 158.958 154.137 151.001 154.137 142.347V58.418H343.859V142.347C343.859 151.001 348.723 158.958 356.503 163.014L395.352 183.271C403.132 187.327 407.996 195.285 407.996 203.939Z" fill="#108C05"/>
<path d="M395.354 183.271L356.505 163.014C348.725 158.958 343.861 151.001 343.861 142.347V58.418H318.559V142.347C318.559 151.001 323.422 158.958 331.203 163.014L370.051 183.271C377.831 187.327 382.695 195.285 382.695 203.939V485.609C382.695 498.524 372.04 509.001 358.896 509.001H384.199C397.343 509.001 407.998 498.524 407.998 485.609V440.055L397.658 346.785L407.998 234.96V203.939C407.998 195.285 403.134 187.327 395.354 183.271V183.271Z" fill="#238600"/>
<path d="M360.196 11.5421V69.4473C360.196 75.8277 354.946 80.9894 348.468 80.9894H149.528C143.05 80.9894 137.801 75.8277 137.801 69.4473V11.5421C137.801 5.17193 143.05 0 149.528 0H348.468C354.946 0 360.196 5.17193 360.196 11.5421V11.5421Z" fill="#7A8C98"/>
<path d="M348.463 0H326.285C332.765 0 338.019 5.16579 338.019 11.538V69.4503C338.019 75.8226 332.765 80.9883 326.285 80.9883H348.463C354.943 80.9883 360.197 75.8226 360.197 69.4503V11.538C360.197 5.16579 354.943 0 348.463 0V0Z" fill="#6A808C"/>
<path d="M90.0039 234.959H408V440.054H90.0039V234.959Z" fill="#EAF6FF"/>
<path d="M382.695 234.959H407.998V440.054H382.695V234.959Z" fill="#EAF6FF"/>
<path d="M120.728 317.728C125.208 317.728 128.472 318.608 130.52 320.368C132.568 322.128 133.592 324.608 133.592 327.808C133.592 329.696 133.16 331.472 132.296 333.136C131.464 334.768 130.04 336.096 128.024 337.12C126.04 338.144 123.336 338.656 119.912 338.656H115.976V352H111.656V317.728H120.728ZM120.344 321.424H115.976V334.96H119.432C122.696 334.96 125.128 334.432 126.728 333.376C128.328 332.32 129.128 330.528 129.128 328C129.128 325.792 128.424 324.144 127.016 323.056C125.608 321.968 123.384 321.424 120.344 321.424ZM149.887 325.84C153.023 325.84 155.343 326.528 156.847 327.904C158.351 329.28 159.103 331.472 159.103 334.48V352H156.031L155.215 348.352H155.023C153.903 349.76 152.719 350.8 151.471 351.472C150.255 352.144 148.559 352.48 146.383 352.48C144.047 352.48 142.111 351.872 140.575 350.656C139.039 349.408 138.271 347.472 138.271 344.848C138.271 342.288 139.279 340.32 141.295 338.944C143.311 337.536 146.415 336.768 150.607 336.64L154.975 336.496V334.96C154.975 332.816 154.511 331.328 153.583 330.496C152.655 329.664 151.343 329.248 149.647 329.248C148.303 329.248 147.023 329.456 145.807 329.872C144.591 330.256 143.455 330.704 142.398 331.216L141.103 328.048C142.223 327.44 143.551 326.928 145.087 326.512C146.623 326.064 148.223 325.84 149.887 325.84ZM151.135 339.568C147.935 339.696 145.711 340.208 144.463 341.104C143.247 342 142.639 343.264 142.639 344.896C142.639 346.336 143.071 347.392 143.935 348.064C144.831 348.736 145.967 349.072 147.343 349.072C149.519 349.072 151.327 348.48 152.767 347.296C154.207 346.08 154.927 344.224 154.927 341.728V339.424L151.135 339.568ZM179.049 325.792C179.529 325.792 180.041 325.824 180.585 325.888C181.161 325.92 181.657 325.984 182.073 326.08L181.545 329.968C181.129 329.872 180.665 329.792 180.153 329.728C179.673 329.664 179.209 329.632 178.761 329.632C177.449 329.632 176.217 330 175.065 330.736C173.913 331.44 172.985 332.448 172.281 333.76C171.609 335.04 171.273 336.544 171.273 338.272V352H167.049V326.272H170.505L170.985 330.976H171.177C172.009 329.568 173.081 328.352 174.393 327.328C175.705 326.304 177.257 325.792 179.049 325.792ZM195.683 325.84C198.819 325.84 201.139 326.528 202.643 327.904C204.147 329.28 204.899 331.472 204.899 334.48V352H201.827L201.011 348.352H200.819C199.699 349.76 198.515 350.8 197.267 351.472C196.051 352.144 194.355 352.48 192.179 352.48C189.843 352.48 187.907 351.872 186.371 350.656C184.835 349.408 184.067 347.472 184.067 344.848C184.067 342.288 185.075 340.32 187.091 338.944C189.107 337.536 192.211 336.768 196.403 336.64L200.771 336.496V334.96C200.771 332.816 200.307 331.328 199.379 330.496C198.451 329.664 197.139 329.248 195.443 329.248C194.099 329.248 192.819 329.456 191.603 329.872C190.387 330.256 189.251 330.704 188.195 331.216L186.899 328.048C188.019 327.44 189.347 326.928 190.883 326.512C192.419 326.064 194.019 325.84 195.683 325.84ZM196.931 339.568C193.731 339.696 191.507 340.208 190.259 341.104C189.043 342 188.435 343.264 188.435 344.896C188.435 346.336 188.867 347.392 189.731 348.064C190.627 348.736 191.763 349.072 193.139 349.072C195.315 349.072 197.123 348.48 198.563 347.296C200.003 346.08 200.723 344.224 200.723 341.728V339.424L196.931 339.568ZM223.166 352.48C220.894 352.48 218.862 352.016 217.07 351.088C215.31 350.16 213.918 348.72 212.894 346.768C211.902 344.816 211.406 342.32 211.406 339.28C211.406 336.112 211.934 333.536 212.99 331.552C214.046 329.568 215.47 328.112 217.262 327.184C219.086 326.256 221.15 325.792 223.454 325.792C224.766 325.792 226.03 325.936 227.246 326.224C228.462 326.48 229.454 326.8 230.222 327.184L228.926 330.688C228.158 330.4 227.262 330.128 226.238 329.872C225.214 329.616 224.254 329.488 223.358 329.488C218.302 329.488 215.774 332.736 215.774 339.232C215.774 342.336 216.382 344.72 217.598 346.384C218.846 348.016 220.686 348.832 223.118 348.832C224.526 348.832 225.758 348.688 226.814 348.4C227.902 348.112 228.894 347.76 229.79 347.344V351.088C228.926 351.536 227.966 351.872 226.91 352.096C225.886 352.352 224.638 352.48 223.166 352.48ZM245.844 325.792C248.052 325.792 249.94 326.272 251.508 327.232C253.108 328.192 254.324 329.552 255.156 331.312C256.02 333.04 256.452 335.072 256.452 337.408V339.952H238.836C238.9 342.864 239.636 345.088 241.044 346.624C242.484 348.128 244.484 348.88 247.044 348.88C248.676 348.88 250.116 348.736 251.364 348.448C252.644 348.128 253.956 347.68 255.3 347.104V350.8C253.988 351.376 252.692 351.792 251.412 352.048C250.132 352.336 248.612 352.48 246.852 352.48C244.42 352.48 242.26 351.984 240.372 350.992C238.516 350 237.06 348.528 236.004 346.576C234.98 344.592 234.468 342.176 234.468 339.328C234.468 336.512 234.932 334.096 235.86 332.08C236.82 330.064 238.148 328.512 239.844 327.424C241.572 326.336 243.572 325.792 245.844 325.792ZM245.796 329.248C243.78 329.248 242.18 329.904 240.996 331.216C239.844 332.496 239.156 334.288 238.932 336.592H252.036C252.004 334.416 251.492 332.656 250.5 331.312C249.508 329.936 247.94 329.248 245.796 329.248ZM271.594 349.024C272.234 349.024 272.89 348.976 273.562 348.88C274.234 348.752 274.778 348.624 275.194 348.496V351.712C274.746 351.936 274.106 352.112 273.274 352.24C272.442 352.4 271.642 352.48 270.874 352.48C269.53 352.48 268.282 352.256 267.13 351.808C266.01 351.328 265.098 350.512 264.394 349.36C263.69 348.208 263.338 346.592 263.338 344.512V329.536H259.69V327.52L263.386 325.84L265.066 320.368H267.562V326.272H275.002V329.536H267.562V344.416C267.562 345.984 267.93 347.152 268.666 347.92C269.434 348.656 270.41 349.024 271.594 349.024ZM290.09 325.84C293.226 325.84 295.546 326.528 297.05 327.904C298.554 329.28 299.306 331.472 299.306 334.48V352H296.234L295.418 348.352H295.226C294.106 349.76 292.922 350.8 291.674 351.472C290.458 352.144 288.762 352.48 286.586 352.48C284.25 352.48 282.314 351.872 280.778 350.656C279.242 349.408 278.474 347.472 278.474 344.848C278.474 342.288 279.482 340.32 281.498 338.944C283.514 337.536 286.618 336.768 290.81 336.64L295.178 336.496V334.96C295.178 332.816 294.714 331.328 293.786 330.496C292.858 329.664 291.546 329.248 289.85 329.248C288.506 329.248 287.226 329.456 286.01 329.872C284.794 330.256 283.658 330.704 282.602 331.216L281.306 328.048C282.426 327.44 283.754 326.928 285.29 326.512C286.826 326.064 288.426 325.84 290.09 325.84ZM291.338 339.568C288.138 339.696 285.914 340.208 284.666 341.104C283.45 342 282.842 343.264 282.842 344.896C282.842 346.336 283.274 347.392 284.138 348.064C285.034 348.736 286.17 349.072 287.546 349.072C289.722 349.072 291.53 348.48 292.97 347.296C294.41 346.08 295.13 344.224 295.13 341.728V339.424L291.338 339.568ZM335.476 325.792C338.388 325.792 340.564 326.544 342.004 328.048C343.444 329.52 344.164 331.92 344.164 335.248V352H339.988V335.44C339.988 331.376 338.244 329.344 334.756 329.344C332.26 329.344 330.468 330.064 329.38 331.504C328.324 332.944 327.796 335.04 327.796 337.792V352H323.62V335.44C323.62 331.376 321.86 329.344 318.34 329.344C315.748 329.344 313.956 330.144 312.964 331.744C311.972 333.344 311.476 335.648 311.476 338.656V352H307.252V326.272H310.66L311.284 329.776H311.524C312.324 328.432 313.396 327.44 314.74 326.8C316.116 326.128 317.572 325.792 319.108 325.792C323.14 325.792 325.764 327.232 326.98 330.112H327.22C328.084 328.64 329.252 327.552 330.724 326.848C332.228 326.144 333.812 325.792 335.476 325.792ZM374.479 339.088C374.479 343.344 373.391 346.64 371.215 348.976C369.071 351.312 366.159 352.48 362.479 352.48C360.207 352.48 358.175 351.968 356.383 350.944C354.623 349.888 353.231 348.368 352.207 346.384C351.183 344.368 350.671 341.936 350.671 339.088C350.671 334.832 351.743 331.552 353.887 329.248C356.031 326.944 358.943 325.792 362.623 325.792C364.959 325.792 367.007 326.32 368.767 327.376C370.559 328.4 371.951 329.904 372.943 331.888C373.967 333.84 374.479 336.24 374.479 339.088ZM355.039 339.088C355.039 342.128 355.631 344.544 356.815 346.336C358.031 348.096 359.951 348.976 362.575 348.976C365.167 348.976 367.071 348.096 368.287 346.336C369.503 344.544 370.111 342.128 370.111 339.088C370.111 336.048 369.503 333.664 368.287 331.936C367.071 330.208 365.151 329.344 362.527 329.344C359.903 329.344 357.999 330.208 356.815 331.936C355.631 333.664 355.039 336.048 355.039 339.088ZM385.398 352H381.174V315.52H385.398V352Z" fill="#FB0101"/>
<path d="M167.266 0H182.888V80.9894H167.266V0Z" fill="#6A808C"/>
<path d="M204.34 0H219.963V80.9894H204.34V0Z" fill="#6A808C"/>
<path d="M241.43 0H257.052V80.9894H241.43V0Z" fill="#6A808C"/>
<path d="M278.512 0H294.134V80.9894H278.512V0Z" fill="#6A808C"/>
<path d="M314.426 0H330.049V80.9894H314.426V0Z" fill="#6A808C"/>
</g>
<defs>
<clipPath id="clip0">
<rect width="512" height="512" fill="white"/>
</clipPath>
</defs>
</svg>
