<svg height="480pt" viewBox="0 0 480 480" width="480pt" xmlns="http://www.w3.org/2000/svg"><path d="m264 56c0 13.253906-10.746094 24-24 24s-24-10.746094-24-24 10.746094-24 24-24 24 10.746094 24 24zm0 0" fill="#78b9eb"/><g fill="#1a6fb0"><path d="m320 192h-72v-105.121094c15.601562-4.027344 25.777344-19.027344 23.746094-35.015625-2.03125-15.984375-15.632813-27.96875-31.746094-27.96875s-29.714844 11.984375-31.746094 27.96875c-2.03125 15.988281 8.144532 30.988281 23.746094 35.015625v105.121094h-88c-4.417969 0-8 3.582031-8 8v24h16v-16h80v16h-48c-4.417969 0-8 3.582031-8 8v32c0 4.417969 3.582031 8 8 8h48v16h-16c-4.417969 0-8 3.582031-8 8v32c0 4.417969 3.582031 8 8 8h16v120h16v-88h16c4.417969 0 8-3.582031 8-8v-32c0-4.417969-3.582031-8-8-8h-16v-16h48c4.417969 0 8-3.582031 8-8v-32c0-4.417969-3.582031-8-8-8h-48v-16h72c4.417969 0 8-3.582031 8-8v-32c0-4.417969-3.582031-8-8-8zm-88 128h-8v-16h8zm0-64h-40v-16h40zm24 80v16h-8v-16zm32-64v16h-40v-16zm-48-200c-8.835938 0-16-7.164062-16-16s7.164062-16 16-16 16 7.164062 16 16c-.027344 8.824219-7.175781 15.972656-16 16zm72 152h-64v-16h64zm0 0"/><path d="m472 184h-96.800781l68.480469-68.480469c3.101562-3.121093 3.101562-8.160156 0-11.28125l-67.917969-67.917969c-3.121094-3.101562-8.160157-3.101562-11.28125 0l-68.480469 68.480469v-96.800781c0-4.417969-3.582031-8-8-8h-96c-4.417969 0-8 3.582031-8 8v96.800781l-68.480469-68.480469c-3.121093-3.101562-8.160156-3.101562-11.28125 0l-67.917969 67.917969c-3.101562 3.121094-3.101562 8.160157 0 11.28125l68.480469 68.480469h-96.800781c-4.417969 0-8 3.582031-8 8v96c0 4.417969 3.582031 8 8 8h96.800781l-68.480469 68.480469c-1.472656 1.492187-2.304687 3.503906-2.320312 5.597656.015625 2.121094.847656 4.15625 2.320312 5.683594l67.917969 67.917969c3.121094 3.101562 8.160157 3.101562 11.28125 0l68.480469-68.480469v96.800781c0 4.417969 3.582031 8 8 8h96c4.417969 0 8-3.582031 8-8v-96.800781l68.480469 68.480469c3.121093 3.101562 8.160156 3.101562 11.28125 0l67.917969-67.917969c1.472656-1.527344 2.304687-3.5625 2.320312-5.683594-.015625-2.09375-.847656-4.105469-2.320312-5.597656l-68.480469-68.480469h96.800781c4.417969 0 8-3.582031 8-8v-96c0-4.417969-3.582031-8-8-8zm-8 96h-108.078125c-3.253906-.019531-6.191406 1.929688-7.4375 4.933594-1.246094 3-.550781 6.457031 1.753906 8.746094l76.402344 76.398437-56.5625 56.5625-76.398437-76.402344c-2.289063-2.304687-5.746094-3-8.746094-1.753906-3.003906 1.246094-4.953125 4.183594-4.933594 7.4375v108.078125h-80v-108.078125c.019531-3.253906-1.929688-6.191406-4.933594-7.4375-3-1.246094-6.457031-.550781-8.746094 1.753906l-76.398437 76.402344-56.5625-56.5625 76.402344-76.398437c2.304687-2.289063 3-5.746094 1.753906-8.746094-1.246094-3.003906-4.183594-4.953125-7.4375-4.933594h-108.078125v-80h108.078125c3.253906.019531 6.191406-1.929688 7.4375-4.933594 1.246094-3 .550781-6.457031-1.753906-8.746094l-76.402344-76.398437 56.5625-56.5625 76.398437 76.402344c2.289063 2.304687 5.746094 3 8.746094 1.753906 3.003906-1.246094 4.953125-4.183594 4.933594-7.4375v-108.078125h80v108.078125c-.019531 3.253906 1.929688 6.191406 4.933594 7.4375 3 1.246094 6.457031.550781 8.746094-1.753906l76.398437-76.402344 56.5625 56.5625-76.402344 76.398437c-2.304687 2.289063-3 5.746094-1.753906 8.746094 1.246094 3.003906 4.183594 4.953125 7.4375 4.933594h108.078125zm0 0"/></g></svg>