<?xml version="1.0"?>
<svg xmlns="http://www.w3.org/2000/svg" viewBox="0 0 64 64" width="512" height="512"><g id="Medicine-3" data-name="Medicine"><path d="M50,21.92V57a4,4,0,0,1-4,4H18a4,4,0,0,1-4-4V21.92a6,6,0,0,1,4.82-5.88L24,15V11H40v4l5.18,1.04A6,6,0,0,1,50,21.92Z" style="fill:#5aaae7"/><rect x="18" y="25" width="28" height="28" rx="2" style="fill:#e6e7e8"/><circle cx="32" cy="39" r="10" style="fill:#ffd422"/><polygon points="38 37 38 41 34 41 34 45 30 45 30 41 26 41 26 37 30 37 30 33 34 33 34 37 38 37" style="fill:#ff5023"/><path d="M37,3h4a1,1,0,0,1,1,1v6a1,1,0,0,1-1,1H23a1,1,0,0,1-1-1V4a1,1,0,0,1,1-1H37Z" style="fill:#898890"/><rect x="24" y="11" width="16" height="2" style="fill:#3d9ae2"/><rect x="31" y="3" width="2" height="3" style="fill:#57565c"/><rect x="36" y="3" width="2" height="3" style="fill:#57565c"/><rect x="26" y="3" width="2" height="3" style="fill:#57565c"/></g></svg>
