<svg id="Capa_1" enable-background="new 0 0 512 512" height="512" viewBox="0 0 512 512" width="512" xmlns="http://www.w3.org/2000/svg"><g><g><g><path clip-rule="evenodd" d="m215.212 472.878h97.728c25 0 45.484-20.529 45.484-45.585v-254.501c0-24.647-19.785-44.884-44.202-45.556-1.399-.029-1.282-1.051-1.282-2.365v-54.697l-101.46-28.108-94.026 28.108v54.697c0 1.314.117 2.336-1.253 2.365-24.446.672-44.201 20.909-44.201 45.556v254.501c0 25.056 20.834 45.585 45.863 45.585z" fill="#f8f2f0" fill-rule="evenodd"/></g></g><g><g><path clip-rule="evenodd" d="m267.78 309.93c-16.601 32.791-51.437 45.792-79.756 36.808-2.457-.773-4.852-1.71-7.195-2.823-2.333-1.113-4.584-2.369-6.743-3.781-10.803-7.057-19.191-17.688-24.023-30.205-10.814-28.093-3.731-65.736 34.178-93.942 2.765-2.05 5.705-4.069 8.799-6.016l65.242-41.063c4.071-2.565 7.864-.793 8.48 3.997l5.417 43.082 4.225 33.522c3.115 24.499-.668 44.742-8.624 60.421z" fill="#80d261" fill-rule="evenodd"/></g></g><g><g><path clip-rule="evenodd" d="m72 309.928h78.06c-10.81-28.093-3.73-65.735 34.179-93.945h-112.239z" fill="#fece85" fill-rule="evenodd"/></g></g><g><g><path clip-rule="evenodd" d="m267.777 309.928h90.648v-93.945h-86.248l4.225 33.525c3.118 24.5-.67 44.738-8.625 60.42z" fill="#fece85" fill-rule="evenodd"/></g></g><g><g><path clip-rule="evenodd" d="m345.517 474.777 62.297-31.13c28.642-14.309 40.385-49.498 26.108-78.176-13.87-27.859-47.378-39.774-75.496-27.334-.845.38-1.661.759-2.506 1.168l-62.297 31.13.845 63.019 45.601 30.371z" fill="#80d261" fill-rule="evenodd"/></g></g><g><g><path clip-rule="evenodd" d="m328.006 9.9v50.376c0 5.429-4.461 9.9-9.878 9.9h-205.831c-5.448 0-9.878-4.471-9.878-9.9v-50.376c0-5.46 4.43-9.9 9.878-9.9h205.831c5.417 0 9.878 4.44 9.878 9.9z" fill="#80d261" fill-rule="evenodd"/></g></g><g><g><path clip-rule="evenodd" d="m205.189 479.77c14.278 28.677 49.389 40.446 78.002 26.136l62.326-31.13-5.449-10.951-46.446-93.39-62.326 31.159c-26.37 13.17-38.404 44.067-28.992 71.284.816 2.308 1.778 4.614 2.885 6.892z" fill="#fece85" fill-rule="evenodd"/></g></g><g><g><path clip-rule="evenodd" d="m205.189 479.77c14.278 28.677 49.389 40.446 78.002 26.136l62.326-31.13-5.449-10.951-9.091-18.281-10.519 5.227-44.202 22.106-7.605 3.796c-19.289 9.637-41.521 7.447-58.334-3.796-3.73-2.511-7.197-5.432-10.286-8.79.524 2.949 1.282 5.899 2.273 8.79.816 2.309 1.778 4.615 2.885 6.893z" fill="#fdb440" fill-rule="evenodd"/></g></g><g><g><path clip-rule="evenodd" d="m345.517 474.777 62.297-31.13c28.642-14.309 40.385-49.498 26.108-78.176-2.506-5.081-5.682-9.608-9.353-13.579 4.4 24.793-7.722 50.725-31.294 62.494l-35.082 17.551-27.215 13.608 9.091 18.281z" fill="#4fc122" fill-rule="evenodd"/></g></g><g><g><path clip-rule="evenodd" d="m300.732 215.983h57.693v93.945h-57.693z" fill="#fdb440" fill-rule="evenodd"/></g></g><g><g><path clip-rule="evenodd" d="m330.336 352.096c9.149-4.585 18.794-9.841 28.089-13.959v-28.21h-57.693v56.974z" fill="#d6dcea" fill-rule="evenodd"/></g></g><g><g><path clip-rule="evenodd" d="m267.777 309.928c7.955-15.682 11.743-35.919 8.625-60.42l-4.225-33.525-5.42-43.074c-.612-4.789-4.4-6.571-8.479-4.001l-8.683 5.461 2.389 19.04 4.225 33.525c6.614 52.273-7.867 103.202-62.617 108.751-9.878.993-25.816-6.366-34.878-10.075 5.828 7.826 13.345 14.163 22.116 18.31 29.342 13.9 68.911 1.635 86.947-33.992z" fill="#4fc122" fill-rule="evenodd"/></g></g><g><g><path clip-rule="evenodd" d="m300.732 215.983h57.693v-43.191c0-24.647-19.785-44.884-44.202-45.556-1.399-.029-1.282-1.051-1.282-2.365v-27.363-27.334h-34.936-160.55v30.692h85.286c67.017 0 97.99 54.609 97.99 108.254v6.863z" fill="#d6dcea" fill-rule="evenodd"/></g></g><g><g><path clip-rule="evenodd" d="m291.699 70.174h21.241 5.187c5.42 0 9.878-4.468 9.878-9.9v-50.374c0-5.461-4.458-9.9-9.878-9.9h-36.772c5.449 0 9.878 4.439 9.878 9.9v50.375c0 5.432-4.429 9.9-9.878 9.9h10.344z" fill="#4fc122" fill-rule="evenodd"/></g></g><g><g><path d="m230.394 256.958-42.371 89.78c-2.457-.773-4.852-1.71-7.195-2.823-2.333-1.113-4.584-2.369-6.743-3.781l42.371-89.78c1.819-3.863 6.425-5.512 10.269-3.688 3.855 1.824 5.489 6.439 3.669 10.292z" fill="#44a91f"/></g></g><g><g><path d="m193.505 324.753c-3.166 0-6.134-1.97-7.26-5.129l-11.043-30.984c-1.432-4.019.657-8.44 4.667-9.875 4.008-1.436 8.421.658 9.854 4.677l11.043 30.984c1.432 4.019-.657 8.44-4.667 9.875-.858.306-1.734.452-2.594.452z" fill="#44a91f"/></g></g><g><g><path d="m208.278 293.506c-3.164 0-6.13-1.966-7.258-5.123-1.436-4.017.649-8.44 4.658-9.879l30.915-11.097c4.01-1.44 8.422.651 9.857 4.669 1.436 4.017-.65 8.44-4.658 9.879l-30.915 11.098c-.859.306-1.737.453-2.599.453z" fill="#44a91f"/></g></g><g><g><path d="m222.921 52.859v17.317h-15.419v-17.317c0-4.265 3.454-7.726 7.709-7.726 4.257-.001 7.71 3.461 7.71 7.726z" fill="#f8f2f0"/></g></g><g><g><path d="m280.578 52.859v17.317h-15.419v-17.317c0-4.265 3.444-7.726 7.709-7.726 4.256-.001 7.71 3.461 7.71 7.726z" fill="#f8f2f0"/></g></g><g><g><path d="m165.265 52.859v17.317h-15.419v-17.317c0-4.265 3.454-7.726 7.709-7.726 4.267-.001 7.71 3.461 7.71 7.726z" fill="#f8f2f0"/></g></g></g></svg>