<svg width="512" height="512" viewBox="0 0 512 512" fill="none" xmlns="http://www.w3.org/2000/svg">
<path d="M413.535 205.14V236.344L401.025 339.493L413.535 442.648V488.471C413.535 501.461 402.996 512 389.995 512H122.54C109.539 512 99 501.461 99 488.471V442.648L113.057 339.493L99 236.344V205.14C99 196.435 103.811 188.431 111.506 184.351L149.932 163.974C157.628 159.895 162.439 151.89 162.439 143.185V58.7617H350.096V143.185C350.096 151.89 354.907 159.895 362.603 163.974L401.029 184.351C408.724 188.431 413.535 196.435 413.535 205.14Z" fill="#FA1203"/>
<path d="M401.03 184.351L362.604 163.974C354.908 159.895 350.098 151.89 350.098 143.185V58.7617H325.07V143.185C325.07 151.89 329.881 159.895 337.577 163.974L376.002 184.351C383.698 188.431 388.509 196.435 388.509 205.14V488.471C388.509 501.461 377.97 512 364.969 512H389.996C402.997 512 413.536 501.461 413.536 488.471V442.648L403.308 348.829L413.536 236.344V205.14C413.536 196.435 408.725 188.431 401.03 184.351Z" fill="#FA1203"/>
<path d="M366.252 11.6101V69.8566C366.252 76.2746 361.06 81.4667 354.652 81.4667H157.877C151.469 81.4667 146.277 76.2746 146.277 69.8566V11.6101C146.277 5.20241 151.469 0 157.877 0H354.652C361.06 0 366.252 5.20241 366.252 11.6101Z" fill="#7A8C98"/>
<path d="M354.652 0.00195312H332.715C339.125 0.00195312 344.321 5.19819 344.321 11.608V69.8616C344.321 76.2714 339.125 81.4676 332.715 81.4676H354.652C361.061 81.4676 366.258 76.2714 366.258 69.8616V11.608C366.258 5.19819 361.061 0.00195312 354.652 0.00195312Z" fill="#6A808C"/>
<path d="M99.0039 236.344H413.539V442.648H99.0039V236.344Z" fill="#EAF6FF"/>
<path d="M388.512 236.344H413.539V442.648H388.512V236.344Z" fill="#EAF6FF"/>
<path d="M371.262 339.496C371.262 384.824 344.982 424.012 306.834 442.648H206.185C168.038 424.012 141.758 384.824 141.758 339.496C141.758 294.168 168.038 254.98 206.185 236.344H306.834C344.982 254.98 371.262 294.168 371.262 339.496Z" fill="#FFC700"/>
<path d="M306.832 236.344H281.805C319.952 254.98 346.232 294.168 346.232 339.496C346.232 384.824 319.952 424.012 281.805 442.648H306.832C344.979 424.012 371.259 384.824 371.259 339.496C371.259 294.168 344.979 254.98 306.832 236.344Z" fill="#FFC700"/>
<path d="M175.422 0H190.875V81.4667H175.422V0Z" fill="#6A808C"/>
<path d="M212.098 0H227.55V81.4667H212.098V0Z" fill="#6A808C"/>
<path d="M248.781 0H264.234V81.4667H248.781V0Z" fill="#6A808C"/>
<path d="M285.457 0H300.91V81.4667H285.457V0Z" fill="#6A808C"/>
<path d="M322.141 0H337.593V81.4667H322.141V0Z" fill="#6A808C"/>
<path d="M293.505 368.613H219.042L202.318 415H178.148L246.02 237.266H266.527L334.521 415H310.473L293.505 368.613ZM226.122 349.326H286.547L256.273 266.196L226.122 349.326Z" fill="#FB0101"/>
</svg>
