<svg width="512" height="512" viewBox="0 0 512 512" fill="none" xmlns="http://www.w3.org/2000/svg">
<path d="M413.535 205.14V236.344L401.025 339.493L413.535 442.648V488.471C413.535 501.461 402.996 512 389.995 512H122.54C109.539 512 99 501.461 99 488.471V442.648L113.057 339.493L99 236.344V205.14C99 196.435 103.811 188.431 111.506 184.351L149.932 163.974C157.628 159.895 162.439 151.89 162.439 143.185V58.7617H350.096V143.185C350.096 151.89 354.907 159.895 362.603 163.974L401.029 184.351C408.724 188.431 413.535 196.435 413.535 205.14Z" fill="#D84E4E"/>
<path d="M401.03 184.351L362.604 163.974C354.908 159.895 350.098 151.89 350.098 143.185V58.7617H325.07V143.185C325.07 151.89 329.881 159.895 337.577 163.974L376.002 184.351C383.698 188.431 388.509 196.435 388.509 205.14V488.471C388.509 501.461 377.97 512 364.969 512H389.996C402.997 512 413.536 501.461 413.536 488.471V442.648L403.308 348.829L413.536 236.344V205.14C413.536 196.435 408.725 188.431 401.03 184.351Z" fill="#D84E4E"/>
<path d="M366.256 11.6101V69.8566C366.256 76.2746 361.064 81.4667 354.656 81.4667H157.881C151.473 81.4667 146.281 76.2746 146.281 69.8566V11.6101C146.281 5.20241 151.473 0 157.881 0H354.656C361.064 0 366.256 5.20241 366.256 11.6101Z" fill="#7A8C98"/>
<path d="M354.655 0.00195312H332.719C339.129 0.00195312 344.325 5.19819 344.325 11.608V69.8616C344.325 76.2714 339.129 81.4676 332.719 81.4676H354.655C361.065 81.4676 366.261 76.2714 366.261 69.8616V11.608C366.261 5.19819 361.065 0.00195312 354.655 0.00195312Z" fill="#6A808C"/>
<path d="M99.0078 236.344H413.543V442.648H99.0078V236.344Z" fill="#EAF6FF"/>
<path d="M388.508 236.344H413.535V442.648H388.508V236.344Z" fill="#EAF6FF"/>
<path d="M371.262 339.496C371.262 384.824 344.982 424.012 306.834 442.648H206.185C168.038 424.012 141.758 384.824 141.758 339.496C141.758 294.168 168.038 254.98 206.185 236.344H306.834C344.982 254.98 371.262 294.168 371.262 339.496Z" fill="#FFC700"/>
<path d="M306.832 236.344H281.805C319.952 254.98 346.232 294.168 346.232 339.496C346.232 384.824 319.952 424.012 281.805 442.648H306.832C344.979 424.012 371.259 384.824 371.259 339.496C371.259 294.168 344.979 254.98 306.832 236.344Z" fill="#FFC700"/>
<path d="M326.102 368.604C323.904 387.402 316.946 401.929 305.228 412.183C293.59 422.355 278.087 427.441 258.719 427.441C237.723 427.441 220.877 419.914 208.182 404.858C195.568 389.803 189.261 369.661 189.261 344.434V327.344C189.261 310.824 192.19 296.297 198.05 283.765C203.991 271.232 212.373 261.629 223.196 254.956C234.02 248.201 246.552 244.824 260.794 244.824C279.674 244.824 294.811 250.114 306.204 260.693C317.597 271.191 324.23 285.758 326.102 304.395H302.542C300.507 290.234 296.072 279.98 289.236 273.633C282.482 267.285 273.001 264.111 260.794 264.111C245.82 264.111 234.061 269.645 225.516 280.713C217.052 291.781 212.82 307.528 212.82 327.954V345.166C212.82 364.453 216.849 379.793 224.905 391.187C232.962 402.58 244.233 408.276 258.719 408.276C271.74 408.276 281.709 405.347 288.626 399.487C295.625 393.547 300.263 383.252 302.542 368.604H326.102Z" fill="#FB0101"/>
<path d="M175.422 0H190.875V81.4667H175.422V0Z" fill="#6A808C"/>
<path d="M212.094 0H227.546V81.4667H212.094V0Z" fill="#6A808C"/>
<path d="M248.781 0H264.234V81.4667H248.781V0Z" fill="#6A808C"/>
<path d="M285.453 0H300.906V81.4667H285.453V0Z" fill="#6A808C"/>
<path d="M322.141 0H337.593V81.4667H322.141V0Z" fill="#6A808C"/>
</svg>
