<svg width="512" height="512" viewBox="0 0 512 512" fill="none" xmlns="http://www.w3.org/2000/svg">
<path d="M413.535 205.14V236.344L401.025 339.493L413.535 442.648V488.471C413.535 501.461 402.996 512 389.995 512H122.54C109.539 512 99 501.461 99 488.471V442.648L113.057 339.493L99 236.344V205.14C99 196.435 103.811 188.431 111.506 184.351L149.932 163.974C157.628 159.895 162.439 151.89 162.439 143.185V58.7617H350.096V143.185C350.096 151.89 354.907 159.895 362.603 163.974L401.029 184.351C408.724 188.431 413.535 196.435 413.535 205.14Z" fill="#FA1203" fill-opacity="0.5"/>
<path d="M401.03 184.351L362.604 163.974C354.908 159.895 350.098 151.89 350.098 143.185V58.7617H325.07V143.185C325.07 151.89 329.881 159.895 337.577 163.974L376.002 184.351C383.698 188.431 388.509 196.435 388.509 205.14V488.471C388.509 501.461 377.97 512 364.969 512H389.996C402.997 512 413.536 501.461 413.536 488.471V442.648L403.308 348.829L413.536 236.344V205.14C413.536 196.435 408.725 188.431 401.03 184.351Z" fill="#FA1203" fill-opacity="0.5"/>
<path d="M366.252 11.6101V69.8566C366.252 76.2746 361.06 81.4667 354.652 81.4667H157.877C151.469 81.4667 146.277 76.2746 146.277 69.8566V11.6101C146.277 5.20241 151.469 0 157.877 0H354.652C361.06 0 366.252 5.20241 366.252 11.6101Z" fill="#7A8C98"/>
<path d="M354.652 0.00195312H332.715C339.125 0.00195312 344.321 5.19819 344.321 11.608V69.8616C344.321 76.2714 339.125 81.4676 332.715 81.4676H354.652C361.061 81.4676 366.258 76.2714 366.258 69.8616V11.608C366.258 5.19819 361.061 0.00195312 354.652 0.00195312Z" fill="#6A808C" fill-opacity="0.8"/>
<path d="M99.0039 236.344H413.539V442.648H99.0039V236.344Z" fill="#EAF6FF" fill-opacity="0.7"/>
<path d="M388.512 236.344H413.539V442.648H388.512V236.344Z" fill="#EAF6FF" fill-opacity="0.7"/>
<path d="M371.262 339.496C371.262 384.824 344.982 424.012 306.834 442.648H206.185C168.038 424.012 141.758 384.824 141.758 339.496C141.758 294.168 168.038 254.98 206.185 236.344H306.834C344.982 254.98 371.262 294.168 371.262 339.496Z" fill="#FFC700"/>
<path d="M306.832 236.344H281.805C319.952 254.98 346.232 294.168 346.232 339.496C346.232 384.824 319.952 424.012 281.805 442.648H306.832C344.979 424.012 371.259 384.824 371.259 339.496C371.259 294.168 344.979 254.98 306.832 236.344Z" fill="#FFC700"/>
<path d="M175.422 0H190.875V81.4667H175.422V0Z" fill="#6A808C" fill-opacity="0.8"/>
<path d="M212.098 0H227.55V81.4667H212.098V0Z" fill="#6A808C" fill-opacity="0.8"/>
<path d="M248.781 0H264.234V81.4667H248.781V0Z" fill="#6A808C" fill-opacity="0.8"/>
<path d="M285.457 0H300.91V81.4667H285.457V0Z" fill="#6A808C" fill-opacity="0.8"/>
<path d="M322.141 0H337.593V81.4667H322.141V0Z" fill="#6A808C" fill-opacity="0.8"/>
<path d="M293.505 368.613H219.042L202.318 415H178.148L246.02 237.266H266.527L334.521 415H310.473L293.505 368.613ZM226.122 349.326H286.547L256.273 266.196L226.122 349.326Z" fill="#FB0101"/>
<path d="M416.996 203.939V234.96L404.349 337.505L416.996 440.055V485.609C416.996 498.524 406.341 509.001 393.197 509.001H122.799C109.655 509.001 99 498.524 99 485.609V440.055L113.211 337.505L99 234.96V203.939C99 195.285 103.864 187.327 111.644 183.271L150.493 163.014C158.273 158.958 163.137 151.001 163.137 142.347V58.418H352.859V142.347C352.859 151.001 357.723 158.958 365.503 163.014L404.352 183.271C412.132 187.327 416.996 195.285 416.996 203.939V203.939Z" fill="#87BD15"/>
<path d="M404.354 183.271L365.505 163.014C357.725 158.958 352.861 151.001 352.861 142.347V58.418H327.559V142.347C327.559 151.001 332.422 158.958 340.203 163.014L379.051 183.271C386.831 187.327 391.695 195.285 391.695 203.939V485.609C391.695 498.524 381.04 509.001 367.896 509.001H393.199C406.343 509.001 416.998 498.524 416.998 485.609V440.055L406.658 346.785L416.998 234.96V203.939C416.998 195.285 412.134 187.327 404.354 183.271V183.271Z" fill="#82B90C"/>
<path d="M369.196 11.5421V69.4473C369.196 75.8277 363.946 80.9894 357.468 80.9894H158.528C152.05 80.9894 146.801 75.8277 146.801 69.4473V11.5421C146.801 5.17193 152.05 0 158.528 0H357.468C363.946 0 369.196 5.17193 369.196 11.5421V11.5421Z" fill="#7A8C98"/>
<path d="M357.463 0H335.285C341.765 0 347.019 5.16579 347.019 11.538V69.4503C347.019 75.8226 341.765 80.9883 335.285 80.9883H357.463C363.943 80.9883 369.197 75.8226 369.197 69.4503V11.538C369.197 5.16579 363.943 0 357.463 0V0Z" fill="#6A808C"/>
<path d="M99.0039 234.959H417V440.054H99.0039V234.959Z" fill="#EAF6FF"/>
<path d="M391.695 234.959H416.998V440.054H391.695V234.959Z" fill="#EAF6FF"/>
<path d="M374.256 337.507C374.256 382.569 347.686 421.527 309.119 440.054H207.363C168.796 421.527 142.227 382.569 142.227 337.507C142.227 292.444 168.796 253.486 207.363 234.959H309.119C347.686 253.486 374.256 292.444 374.256 337.507Z" fill="#FFC700"/>
<path d="M309.119 234.959H283.816C322.384 253.486 348.953 292.444 348.953 337.507C348.953 382.569 322.384 421.527 283.816 440.054H309.119C347.686 421.527 374.255 382.569 374.255 337.507C374.255 292.444 347.686 253.486 309.119 234.959V234.959Z" fill="#FFC700"/>
<path d="M208.795 422V242.844H259.367C274.953 242.844 288.734 246.289 300.711 253.18C312.688 260.07 321.916 269.873 328.396 282.588C334.959 295.303 338.281 309.904 338.363 326.393V337.836C338.363 354.734 335.082 369.541 328.52 382.256C322.039 394.971 312.729 404.732 300.588 411.541C288.529 418.35 274.461 421.836 258.383 422H208.795ZM232.42 262.285V402.682H257.275C275.486 402.682 289.637 397.021 299.727 385.701C309.898 374.381 314.984 358.262 314.984 337.344V326.885C314.984 306.541 310.186 290.75 300.588 279.512C291.072 268.191 277.537 262.449 259.982 262.285H232.42Z" fill="#FB0101"/>
<path d="M176.266 0H191.888V80.9894H176.266V0Z" fill="#6A808C"/>
<path d="M213.34 0H228.963V80.9894H213.34V0Z" fill="#6A808C"/>
<path d="M250.43 0H266.052V80.9894H250.43V0Z" fill="#6A808C"/>
<path d="M287.512 0H303.134V80.9894H287.512V0Z" fill="#6A808C"/>
<path d="M323.426 0H339.049V80.9894H323.426V0Z" fill="#6A808C"/>
</svg>
