<svg width="512" height="512" viewBox="0 0 512 512" fill="none" xmlns="http://www.w3.org/2000/svg">
<g clip-path="url(#clip0)">
<path d="M413.535 205.14V236.344L401.025 339.493L413.535 442.648V488.471C413.535 501.461 402.996 512 389.995 512H122.54C109.539 512 99 501.461 99 488.471V442.648L113.057 339.493L99 236.344V205.14C99 196.435 103.811 188.431 111.506 184.351L149.932 163.974C157.628 159.895 162.439 151.89 162.439 143.185V58.7617H350.096V143.185C350.096 151.89 354.907 159.895 362.603 163.974L401.029 184.351C408.724 188.431 413.535 196.435 413.535 205.14Z" fill="#FA1203" fill-opacity="0.5"/>
<path d="M401.03 184.351L362.604 163.974C354.908 159.895 350.098 151.89 350.098 143.185V58.7617H325.07V143.185C325.07 151.89 329.881 159.895 337.577 163.974L376.002 184.351C383.698 188.431 388.509 196.435 388.509 205.14V488.471C388.509 501.461 377.97 512 364.969 512H389.996C402.997 512 413.536 501.461 413.536 488.471V442.648L403.308 348.829L413.536 236.344V205.14C413.536 196.435 408.725 188.431 401.03 184.351Z" fill="#FA1203" fill-opacity="0.5"/>
<path d="M366.252 11.6101V69.8566C366.252 76.2746 361.06 81.4667 354.652 81.4667H157.877C151.469 81.4667 146.277 76.2746 146.277 69.8566V11.6101C146.277 5.20241 151.469 0 157.877 0H354.652C361.06 0 366.252 5.20241 366.252 11.6101Z" fill="#7A8C98"/>
<path d="M354.652 0.00195312H332.715C339.125 0.00195312 344.321 5.19819 344.321 11.608V69.8616C344.321 76.2714 339.125 81.4676 332.715 81.4676H354.652C361.061 81.4676 366.258 76.2714 366.258 69.8616V11.608C366.258 5.19819 361.061 0.00195312 354.652 0.00195312Z" fill="#6A808C" fill-opacity="0.8"/>
<path d="M99.0039 236.344H413.539V442.648H99.0039V236.344Z" fill="#EAF6FF" fill-opacity="0.7"/>
<path d="M388.512 236.344H413.539V442.648H388.512V236.344Z" fill="#EAF6FF" fill-opacity="0.7"/>
<path d="M371.262 339.496C371.262 384.824 344.982 424.012 306.834 442.648H206.185C168.038 424.012 141.758 384.824 141.758 339.496C141.758 294.168 168.038 254.98 206.185 236.344H306.834C344.982 254.98 371.262 294.168 371.262 339.496Z" fill="#FFC700"/>
<path d="M306.832 236.344H281.805C319.952 254.98 346.232 294.168 346.232 339.496C346.232 384.824 319.952 424.012 281.805 442.648H306.832C344.979 424.012 371.259 384.824 371.259 339.496C371.259 294.168 344.979 254.98 306.832 236.344Z" fill="#FFC700"/>
<path d="M175.422 0H190.875V81.4667H175.422V0Z" fill="#6A808C" fill-opacity="0.8"/>
<path d="M212.098 0H227.55V81.4667H212.098V0Z" fill="#6A808C" fill-opacity="0.8"/>
<path d="M248.781 0H264.234V81.4667H248.781V0Z" fill="#6A808C" fill-opacity="0.8"/>
<path d="M285.457 0H300.91V81.4667H285.457V0Z" fill="#6A808C" fill-opacity="0.8"/>
<path d="M322.141 0H337.593V81.4667H322.141V0Z" fill="#6A808C" fill-opacity="0.8"/>
<path d="M293.505 368.613H219.042L202.318 415H178.148L246.02 237.266H266.527L334.521 415H310.473L293.505 368.613ZM226.122 349.326H286.547L256.273 266.196L226.122 349.326Z" fill="#FB0101"/>
<path d="M416.996 206.939V237.96L404.349 340.505L416.996 443.055V488.609C416.996 501.524 406.341 512.001 393.197 512.001H122.799C109.655 512.001 99 501.524 99 488.609V443.055L113.211 340.505L99 237.96V206.939C99 198.285 103.864 190.327 111.644 186.271L150.493 166.014C158.273 161.958 163.137 154.001 163.137 145.347V61.418H352.859V145.347C352.859 154.001 357.723 161.958 365.503 166.014L404.352 186.271C412.132 190.327 416.996 198.285 416.996 206.939V206.939Z" fill="#154EBD"/>
<path d="M404.354 186.271L365.505 166.014C357.725 161.958 352.861 154.001 352.861 145.347V61.418H327.559V145.347C327.559 154.001 332.422 161.958 340.203 166.014L379.051 186.271C386.831 190.327 391.695 198.285 391.695 206.939V488.609C391.695 501.524 381.04 512.001 367.896 512.001H393.199C406.343 512.001 416.998 501.524 416.998 488.609V443.055L406.658 349.785L416.998 237.96V206.939C416.998 198.285 412.134 190.327 404.354 186.271V186.271Z" fill="#154EBD"/>
<path d="M369.196 14.5421V72.4473C369.196 78.8277 363.946 83.9894 357.468 83.9894H158.528C152.05 83.9894 146.801 78.8277 146.801 72.4473V14.5421C146.801 8.17193 152.05 3 158.528 3H357.468C363.946 3 369.196 8.17193 369.196 14.5421V14.5421Z" fill="#7A8C98"/>
<path d="M357.463 3H335.285C341.765 3 347.019 8.16579 347.019 14.538V72.4503C347.019 78.8226 341.765 83.9883 335.285 83.9883H357.463C363.943 83.9883 369.197 78.8226 369.197 72.4503V14.538C369.197 8.16579 363.943 3 357.463 3V3Z" fill="#6A808C"/>
<path d="M99.0039 237.959H417V443.054H99.0039V237.959Z" fill="#EAF6FF"/>
<path d="M391.695 237.959H416.998V443.054H391.695V237.959Z" fill="#EAF6FF"/>
<path d="M374.256 340.507C374.256 385.569 347.686 424.527 309.119 443.054H207.363C168.796 424.527 142.227 385.569 142.227 340.507C142.227 295.444 168.796 256.486 207.363 237.959H309.119C347.686 256.486 374.256 295.444 374.256 340.507Z" fill="#FFC700"/>
<path d="M309.119 237.959H283.816C322.384 256.486 348.953 295.444 348.953 340.507C348.953 385.569 322.384 424.527 283.816 443.054H309.119C347.686 424.527 374.255 385.569 374.255 340.507C374.255 295.444 347.686 256.486 309.119 237.959V237.959Z" fill="#FFC700"/>
<path d="M306.062 342.189H228.42V405.682H318.613V425H204.795V245.844H317.383V265.285H228.42V322.871H306.062V342.189Z" fill="#FB0101"/>
<path d="M176.266 3H191.888V83.9894H176.266V3Z" fill="#6A808C"/>
<path d="M213.34 3H228.963V83.9894H213.34V3Z" fill="#6A808C"/>
<path d="M250.43 3H266.052V83.9894H250.43V3Z" fill="#6A808C"/>
<path d="M287.512 3H303.134V83.9894H287.512V3Z" fill="#6A808C"/>
<path d="M323.426 3H339.049V83.9894H323.426V3Z" fill="#6A808C"/>
</g>
<defs>
<clipPath id="clip0">
<rect width="512" height="512" fill="white"/>
</clipPath>
</defs>
</svg>
